<?xml version="1.0" encoding="utf-8"?>
<svg version="1.1" id="Layer_1"
xmlns="http://www.w3.org/2000/svg"
xmlns:xlink="http://www.w3.org/1999/xlink"
width="550px" height="400px"
xml:space="preserve">
<filter id="filter7" x="-0.549524" y="-0.549524" width="2.3179" height="2.32216" >
<feComponentTransfer in="SourceGraphic">
	<feFuncR type="linear" slope="0"/>
	<feFuncG type="linear" slope="0"/>
	<feFuncB type="linear" slope="0"/>
</feComponentTransfer>
<feGaussianBlur stdDeviation="2 2" />
<feOffset result="1" dx="-3.53558" dy="-3.53549"/>
<feComponentTransfer in="SourceGraphic">
	<feFuncR type="linear" slope="0"/>
	<feFuncG type="linear" slope="0"/>
	<feFuncB type="linear" slope="0"/>
</feComponentTransfer>
<feGaussianBlur stdDeviation="2 2" />
<feOffset result="2" dx="3.53558" dy="3.53549"/>
<feComposite  in="1" in2="2" operator="arithmetic" k2="1" k3="-1"/>
<feComponentTransfer result="3">
	<feFuncR type="linear" Ue="0" intercept="0.647059"/>
	<feFuncG type="linear" Ue="0" intercept="0.647059"/>
	<feFuncB type="linear" Ue="0" intercept="0.647059"/>
	<feFuncA type="linear" xh="0" slope="1"/>
</feComponentTransfer>
<feComposite  in="2" in2="1" operator="arithmetic" k2="1" k3="-1"/>
<feComponentTransfer result="4">
	<feFuncR type="linear" Ue="0" intercept="0"/>
	<feFuncG type="linear" Ue="0" intercept="0"/>
	<feFuncB type="linear" Ue="0" intercept="0"/>
	<feFuncA type="linear" xh="0" slope="1"/>
</feComponentTransfer>
<feComposite result="5"  in="3" in2="4" operator="arithmetic" k2="1" k3="1"/>
<feComposite result="6"  in="5" in2="SourceGraphic" operator="atop"/>
</filter>
<g style="filter:url(#filter7);">
<g id="PathID_1" transform="matrix(0.014244, 0.830348, -0.830348, 0.014244, 101.7, 171.45)" opacity="1">
<radialGradient
id="RadialGradID_1" gradientUnits="userSpaceOnUse" gradientTransform="matrix(-3.84115e-009, 0.0878754, -0.0878754, -3.84115e-009, -3.35, -8.05)" spreadMethod ="pad" cx="0" cy="0" r="819.2" fx="0" fy="0" >
<stop  offset="0.243137"  style="stop-color:#FFC508;stop-opacity:1" />
<stop  offset="1"  style="stop-color:#595959;stop-opacity:1" />
</radialGradient>
<path style="fill:url(#RadialGradID_1) " d="M10.1 1.5L48.8 -11.35L48.8 55.55L10.1 44L10.1 1.5M-48.75 -55.5L-9.4 -55.5L-9.4 -17.55L-48.75 -4.3L-48.75 -55.5" />
</g>
<g id="PathID_2" transform="matrix(0.014244, 0.830348, -0.830348, 0.014244, 101.7, 171.45)" opacity="1">
</g>
</g>
<filter id="filter14" x="-0.549524" y="-0.549524" width="2.31148" height="2.32557" >
<feComponentTransfer in="SourceGraphic">
	<feFuncR type="linear" slope="0"/>
	<feFuncG type="linear" slope="0"/>
	<feFuncB type="linear" slope="0"/>
</feComponentTransfer>
<feGaussianBlur stdDeviation="2 2" />
<feOffset result="8" dx="-3.53558" dy="-3.53549"/>
<feComponentTransfer in="SourceGraphic">
	<feFuncR type="linear" slope="0"/>
	<feFuncG type="linear" slope="0"/>
	<feFuncB type="linear" slope="0"/>
</feComponentTransfer>
<feGaussianBlur stdDeviation="2 2" />
<feOffset result="9" dx="3.53558" dy="3.53549"/>
<feComposite  in="8" in2="9" operator="arithmetic" k2="1" k3="-1"/>
<feComponentTransfer result="10">
	<feFuncR type="linear" Ue="0" intercept="0.176471"/>
	<feFuncG type="linear" Ue="0" intercept="0.337255"/>
	<feFuncB type="linear" Ue="0" intercept="0.596078"/>
	<feFuncA type="linear" xh="0" slope="1"/>
</feComponentTransfer>
<feComposite  in="9" in2="8" operator="arithmetic" k2="1" k3="-1"/>
<feComponentTransfer result="11">
	<feFuncR type="linear" Ue="0" intercept="0"/>
	<feFuncG type="linear" Ue="0" intercept="0"/>
	<feFuncB type="linear" Ue="0" intercept="0"/>
	<feFuncA type="linear" xh="0" slope="1"/>
</feComponentTransfer>
<feComposite result="12"  in="10" in2="11" operator="arithmetic" k2="1" k3="1"/>
<feComposite result="13"  in="12" in2="SourceGraphic" operator="atop"/>
</filter>
<g style="filter:url(#filter14);">
<g id="PathID_3" transform="matrix(0.176981, 0.811392, -0.811392, 0.176981, 104.5, 175.6)" opacity="1">
<radialGradient
id="RadialGradID_2" gradientUnits="userSpaceOnUse" gradientTransform="matrix(-2.63725e-009, 0.0603333, -0.0603333, -2.63725e-009, 0, 0)" spreadMethod ="pad" cx="0" cy="0" r="819.2" fx="0" fy="0" >
<stop  offset="0.227451"  style="stop-color:#0B5C9E;stop-opacity:1" />
<stop  offset="1"  style="stop-color:#001D4C;stop-opacity:1" />
</radialGradient>
<path style="fill:url(#RadialGradID_2) " d="M49.45 -56.55L49.45 -18.1L-8.35 0.2L-8.35 44.85L-49.4 56.6L-49.4 1.45L9.2 -17.2L9.2 -56.55L49.45 -56.55" />
</g>
<g id="PathID_4" transform="matrix(0.176981, 0.811392, -0.811392, 0.176981, 104.5, 175.6)" opacity="1">
</g>
</g>
<g id="PathID_5" transform="matrix(1.2335, 0, 0, 0.965834, 154.3, 165.45)" opacity="1">
<linearGradient
id="LinearGradID_3" gradientUnits="userSpaceOnUse" gradientTransform="matrix(0.0654408, -0.0677659, 0.0163444, 0.0157836, 80.95, -18.1)" spreadMethod ="pad" x1="-819.2" y1="0" x2="819.2" y2="0" >
<stop  offset="1" style="stop-color:#2D3439;stop-opacity:1" />
<stop  offset="1" style="stop-color:#2D3439;stop-opacity:0.588235" />
<stop  offset="1" style="stop-color:#2D3439;stop-opacity:1" />
<stop  offset="1" style="stop-color:#2D3439;stop-opacity:1" />
</linearGradient>
<path style="fill:url(#LinearGradID_3) " d="M3.9 -36.65L31.3 -36.65L31.3 -30.45L11.3 -30.45L11.3 -21.95L21.15 -21.95Q25.25 -21.95 27.95 -20.95Q30.65 -19.95 32.55 -17.25Q34.5 -14.55 34.5 -10.95Q34.5 -7.2 32.55 -4.55Q30.65 -1.9 28.15 -0.95Q25.7 0 21.15 0L3.9 0L3.9 -36.65M11.3 -6.2L18.45 -6.2Q21.9 -6.2 23.3 -6.5Q24.7 -6.85 25.75 -8Q26.8 -9.2 26.8 -10.95Q26.8 -13.45 24.95 -14.6Q23.15 -15.75 18.8 -15.75L11.3 -15.75L11.3 -6.2" />
</g>
<g id="PathID_6" transform="matrix(1.2335, 0, 0, 0.965834, 154.3, 165.45)" opacity="1">
</g>
<g id="PathID_7" transform="matrix(1.2335, 0, 0, 0.965834, 194.4, 165.45)" opacity="1">
<linearGradient
id="LinearGradID_4" gradientUnits="userSpaceOnUse" gradientTransform="matrix(0.0654408, -0.0677659, 0.0163444, 0.0157836, 48.4, -18.1)" spreadMethod ="pad" x1="-819.2" y1="0" x2="819.2" y2="0" >
<stop  offset="1" style="stop-color:#2D3439;stop-opacity:1" />
<stop  offset="1" style="stop-color:#2D3439;stop-opacity:0.588235" />
<stop  offset="1" style="stop-color:#2D3439;stop-opacity:1" />
<stop  offset="1" style="stop-color:#2D3439;stop-opacity:1" />
</linearGradient>
<path style="fill:url(#LinearGradID_4) " d="M3.5 -26.55L10.25 -26.55L10.25 -9.8L21.1 -26.55L28 -26.55L28 0L21.25 0L21.25 -16.9L10.25 0L3.5 0L3.5 -26.55" />
</g>
<g id="PathID_8" transform="matrix(1.2335, 0, 0, 0.965834, 194.4, 165.45)" opacity="1">
</g>
<g id="PathID_9" transform="matrix(1.2335, 0, 0, 0.965834, 227.95, 165.45)" opacity="1">
<linearGradient
id="LinearGradID_5" gradientUnits="userSpaceOnUse" gradientTransform="matrix(0.0654408, -0.0677659, 0.0163444, 0.0157836, 21.2, -18.1)" spreadMethod ="pad" x1="-819.2" y1="0" x2="819.2" y2="0" >
<stop  offset="1" style="stop-color:#2D3439;stop-opacity:1" />
<stop  offset="1" style="stop-color:#2D3439;stop-opacity:0.588235" />
<stop  offset="1" style="stop-color:#2D3439;stop-opacity:1" />
<stop  offset="1" style="stop-color:#2D3439;stop-opacity:1" />
</linearGradient>
<path style="fill:url(#LinearGradID_5) " d="M10.8 -10.9L10.8 -15.5Q12.6 -15.5 13.4 -15.7Q14.25 -15.95 15 -16.85Q15.75 -17.75 15.75 -18.95Q15.75 -20.15 14.8 -21.2Q13.9 -22.3 12.1 -22.3Q10.7 -22.3 9.6 -21.7Q8.5 -21.1 7.65 -18.85L1.7 -20.15Q2.55 -23.65 5.5 -25.4Q8.45 -27.15 12.2 -27.15Q17 -27.15 19.65 -24.95Q22.3 -22.75 22.3 -19.4Q22.3 -17.35 21.15 -15.95Q20 -14.6 17.55 -13.45Q20.5 -12.65 21.95 -11Q23.45 -9.4 23.45 -6.95Q23.45 -3.85 20.55 -1.6Q17.65 0.6 12.2 0.6Q2.7 0.6 0.6 -6.8L7.05 -8Q8.55 -4.1 12.1 -4.1Q14.05 -4.1 15.25 -5.1Q16.45 -6.15 16.45 -7.55Q16.45 -9.1 15.2 -10Q13.95 -10.9 11.95 -10.9L10.8 -10.9" />
</g>
<g id="PathID_10" transform="matrix(1.2335, 0, 0, 0.965834, 227.95, 165.45)" opacity="1">
</g>
<g id="PathID_11" transform="matrix(1.2335, 0, 0, 0.965834, 254, 165.45)" opacity="1">
<linearGradient
id="LinearGradID_6" gradientUnits="userSpaceOnUse" gradientTransform="matrix(0.0654408, -0.0677659, 0.0163444, 0.0157836, 0.1, -18.1)" spreadMethod ="pad" x1="-819.2" y1="0" x2="819.2" y2="0" >
<stop  offset="1" style="stop-color:#2D3439;stop-opacity:1" />
<stop  offset="1" style="stop-color:#2D3439;stop-opacity:0.588235" />
<stop  offset="1" style="stop-color:#2D3439;stop-opacity:1" />
<stop  offset="1" style="stop-color:#2D3439;stop-opacity:1" />
</linearGradient>
<path style="fill:url(#LinearGradID_6) " d="M3.4 -26.55L10.45 -26.55L10.45 -16.85L20.5 -16.85L20.5 -26.55L27.55 -26.55L27.55 0L20.5 0L20.5 -11.15L10.45 -11.15L10.45 0L3.4 0L3.4 -26.55" />
</g>
<g id="PathID_12" transform="matrix(1.2335, 0, 0, 0.965834, 254, 165.45)" opacity="1">
</g>
<g id="PathID_13" transform="matrix(1.2335, 0, 0, 0.965834, 286.9, 165.45)" opacity="1">
<linearGradient
id="LinearGradID_7" gradientUnits="userSpaceOnUse" gradientTransform="matrix(0.0654408, -0.0677659, 0.0163444, 0.0157836, -26.5, -18.1)" spreadMethod ="pad" x1="-819.2" y1="0" x2="819.2" y2="0" >
<stop  offset="1" style="stop-color:#2D3439;stop-opacity:1" />
<stop  offset="1" style="stop-color:#2D3439;stop-opacity:0.588235" />
<stop  offset="1" style="stop-color:#2D3439;stop-opacity:1" />
<stop  offset="1" style="stop-color:#2D3439;stop-opacity:1" />
</linearGradient>
<path style="fill:url(#LinearGradID_7) " d="M19.05 -8.45L26.05 -7.25Q24.7 -3.4 21.75 -1.4Q18.85 0.6 14.5 0.6Q7.55 0.6 4.25 -3.9Q1.65 -7.55 1.65 -13.05Q1.65 -19.65 5.1 -23.4Q8.55 -27.15 13.8 -27.15Q19.75 -27.15 23.15 -23.2Q26.6 -19.3 26.45 -11.25L8.85 -11.25Q8.9 -8.1 10.5 -6.35Q12.15 -4.65 14.55 -4.65Q16.2 -4.65 17.3 -5.55Q18.45 -6.45 19.05 -8.45M19.45 -15.55Q19.35 -18.55 17.85 -20.15Q16.35 -21.75 14.2 -21.75Q11.9 -21.75 10.4 -20.05Q8.95 -18.4 8.95 -15.55L19.45 -15.55" />
</g>
<g id="PathID_14" transform="matrix(1.2335, 0, 0, 0.965834, 286.9, 165.45)" opacity="1">
</g>
<g id="PathID_15" transform="matrix(1.2335, 0, 0, 0.965834, 315.85, 165.45)" opacity="1">
<linearGradient
id="LinearGradID_8" gradientUnits="userSpaceOnUse" gradientTransform="matrix(0.0654408, -0.0677659, 0.0163444, 0.0157836, -50, -18.1)" spreadMethod ="pad" x1="-819.2" y1="0" x2="819.2" y2="0" >
<stop  offset="1" style="stop-color:#2D3439;stop-opacity:1" />
<stop  offset="1" style="stop-color:#2D3439;stop-opacity:0.588235" />
<stop  offset="1" style="stop-color:#2D3439;stop-opacity:1" />
<stop  offset="1" style="stop-color:#2D3439;stop-opacity:1" />
</linearGradient>
<path style="fill:url(#LinearGradID_8) " d="M26.85 -18.7L19.9 -17.45Q19.55 -19.5 18.3 -20.55Q17.05 -21.6 15.1 -21.6Q12.45 -21.6 10.9 -19.75Q9.35 -17.95 9.35 -13.7Q9.35 -9 10.9 -7.05Q12.5 -5.15 15.2 -5.15Q17.2 -5.15 18.45 -6.25Q19.75 -7.4 20.3 -10.2L27.2 -9Q26.1 -4.25 23.05 -1.8Q20 0.6 14.9 0.6Q9.05 0.6 5.6 -3.05Q2.15 -6.75 2.15 -13.25Q2.15 -19.8 5.6 -23.45Q9.1 -27.15 15 -27.15Q19.85 -27.15 22.7 -25.05Q25.6 -22.95 26.85 -18.7" />
</g>
<g id="PathID_16" transform="matrix(1.2335, 0, 0, 0.965834, 315.85, 165.45)" opacity="1">
</g>
<g id="PathID_17" transform="matrix(0.270127, 0, 0, 0.270127, 65.65, 240.25)" opacity="1">
<path style="fill:#4E4E4E;fill-opacity:1" d="M4.15 0L4.15 -36.65L9 -36.65L9 -21.65L28 -21.65L28 -36.65L32.85 -36.65L32.85 0L28 0L28 -17.3L9 -17.3L9 0L4.15 0" />
</g>
<g id="PathID_18" transform="matrix(0.270127, 0, 0, 0.270127, 65.65, 240.25)" opacity="1">
</g>
<g id="PathID_19" transform="matrix(0.270127, 0, 0, 0.270127, 75.6, 240.25)" opacity="1">
<path style="fill:#4E4E4E;fill-opacity:1" d="M-0.05 0L14 -36.65L19.3 -36.65L34.25 0L28.75 0L24.5 -11.1L9.1 -11.1L5.1 0L-0.05 0M10.45 -15.05L22.95 -15.05L19.15 -25.2Q17.35 -29.8 16.5 -32.85Q15.8 -29.25 14.5 -25.75L10.45 -15.05" />
</g>
<g id="PathID_20" transform="matrix(0.270127, 0, 0, 0.270127, 75.6, 240.25)" opacity="1">
</g>
<g id="PathID_21" transform="matrix(0.270127, 0, 0, 0.270127, 85.3, 240.25)" opacity="1">
<path style="fill:#4E4E4E;fill-opacity:1" d="M7.25 -36.65L29.6 -36.65L29.6 -4.35L32.9 -4.35L32.9 8.55L28.55 8.55L28.55 0L4.35 0L4.35 8.55L0 8.55L0 -4.35L2.85 -4.35Q7.25 -11 7.25 -31.3L7.25 -36.65M24.75 -32.3L11.95 -32.3L11.95 -30.4Q11.95 -25.75 11.1 -17.65Q10.25 -9.55 7.85 -4.35L24.75 -4.35L24.75 -32.3" />
</g>
<g id="PathID_22" transform="matrix(0.270127, 0, 0, 0.270127, 85.3, 240.25)" opacity="1">
</g>
<g id="PathID_23" transform="matrix(0.270127, 0, 0, 0.270127, 94.65, 240.25)" opacity="1">
<path style="fill:#4E4E4E;fill-opacity:1" d="M4.05 0L4.05 -36.65L30.55 -36.65L30.55 -32.3L8.9 -32.3L8.9 -21.15L29.15 -21.15L29.15 -16.8L8.9 -16.8L8.9 -4.35L31.4 -4.35L31.4 0L4.05 0" />
</g>
<g id="PathID_24" transform="matrix(0.270127, 0, 0, 0.270127, 94.65, 240.25)" opacity="1">
</g>
<g id="PathID_25" transform="matrix(0.270127, 0, 0, 0.270127, 103.85, 240.25)" opacity="1">
<path style="fill:#4E4E4E;fill-opacity:1" d="M26.15 -36.65L26.15 -20.6Q29.7 -20.6 31 -21.9Q32.35 -23.2 34.45 -28.1Q36 -31.7 36.95 -33.2Q37.95 -34.7 39.75 -35.7Q41.6 -36.75 43.8 -36.75L46.75 -36.7L46.75 -32.5L45.8 -32.5L44.8 -32.55Q42.5 -32.55 41.35 -31.4Q40.2 -30.25 38.75 -26.55Q37.15 -22.55 35.95 -21.1Q34.8 -19.7 32.55 -18.75Q36.15 -17.75 39.55 -12.2L47.1 0L41.1 0L34.95 -9.9Q32.5 -13.85 30.8 -15.5Q29.15 -17.15 26.15 -17.15L26.15 0L21.15 0L21.15 -17.15Q18.75 -17.15 16.9 -15.85Q15.1 -14.6 12.65 -10.4L12.35 -9.9L6.2 0L0.2 0L7.7 -12.2Q11.15 -17.75 14.7 -18.75Q12.75 -19.55 11.5 -20.85Q10.25 -22.2 8.5 -26.55Q6.95 -30.5 5.8 -31.5Q4.7 -32.55 2.45 -32.55L0.55 -32.5L0.55 -36.7L3.35 -36.75Q5.75 -36.75 7.5 -35.75Q9.25 -34.75 10.25 -33.25Q11.25 -31.75 12.85 -28.1Q14.9 -23.15 16.2 -21.9Q17.55 -20.65 21.15 -20.6L21.15 -36.65L26.15 -36.65" />
</g>
<g id="PathID_26" transform="matrix(0.270127, 0, 0, 0.270127, 103.85, 240.25)" opacity="1">
</g>
<g id="PathID_27" transform="matrix(0.270127, 0, 0, 0.270127, 116.6, 240.25)" opacity="1">
<path style="fill:#4E4E4E;fill-opacity:1" d="M4.15 0L4.15 -36.65L9 -36.65L9 -21.65L28 -21.65L28 -36.65L32.85 -36.65L32.85 0L28 0L28 -17.3L9 -17.3L9 0L4.15 0" />
</g>
<g id="PathID_28" transform="matrix(0.270127, 0, 0, 0.270127, 116.6, 240.25)" opacity="1">
</g>
<g id="PathID_29" transform="matrix(0.270127, 0, 0, 0.270127, 126.6, 240.25)" opacity="1">
<path style="fill:#4E4E4E;fill-opacity:1" d="M4.2 -36.65L9.05 -36.65L9.05 -21.05L17.8 -21.05Q26.4 -21.05 29.1 -17.85Q31.85 -14.65 31.85 -10.65Q31.85 -6.35 28.9 -3.15Q26 0 18.15 0L4.2 0L4.2 -36.65M9.05 -4.15L17.9 -4.15Q22.5 -4.15 24.55 -5.65Q26.65 -7.2 26.65 -10.6Q26.65 -12.9 25.35 -14.45Q24.1 -16 22.1 -16.4Q20.15 -16.85 15.55 -16.85L9.05 -16.85L9.05 -4.15M36.25 -36.65L41.1 -36.65L41.1 0L36.25 0L36.25 -36.65" />
</g>
<g id="PathID_30" transform="matrix(0.270127, 0, 0, 0.270127, 126.6, 240.25)" opacity="1">
</g>
<g id="PathID_31" transform="matrix(0.270127, 0, 0, 0.270127, 138.8, 240.25)" opacity="1">
<path style="fill:#4E4E4E;fill-opacity:1" d="M4.05 -36.65L8.45 -36.65L8.45 -7.6L27.85 -36.65L32.75 -36.65L32.75 0L28.35 0L28.35 -28.95L8.9 0L4.05 0L4.05 -36.65M22.3 -45.4L25.4 -45.4Q25 -42.25 23.1 -40.55Q21.2 -38.9 18 -38.9Q14.8 -38.9 12.85 -40.55Q10.95 -42.2 10.6 -45.4L13.7 -45.4Q14 -43.65 15.05 -42.8Q16.1 -42 17.85 -42Q19.85 -42 20.9 -42.8Q21.95 -43.6 22.3 -45.4" />
</g>
<g id="PathID_32" transform="matrix(0.270127, 0, 0, 0.270127, 138.8, 240.25)" opacity="1">
</g>
<g id="PathID_33" transform="matrix(0.270127, 0, 0, 0.270127, 152.6, 240.25)" opacity="1">
<path style="fill:#4E4E4E;fill-opacity:1" d="M4 -36.65L32.75 -36.65L32.75 0L27.9 0L27.9 -32.3L8.85 -32.3L8.85 0L4 0L4 -36.65" />
</g>
<g id="PathID_34" transform="matrix(0.270127, 0, 0, 0.270127, 152.6, 240.25)" opacity="1">
</g>
<g id="PathID_35" transform="matrix(0.270127, 0, 0, 0.270127, 162.55, 240.25)" opacity="1">
<path style="fill:#4E4E4E;fill-opacity:1" d="M-0.05 0L14 -36.65L19.3 -36.65L34.25 0L28.75 0L24.5 -11.1L9.1 -11.1L5.1 0L-0.05 0M10.45 -15.05L22.95 -15.05L19.15 -25.2Q17.35 -29.8 16.5 -32.85Q15.8 -29.25 14.5 -25.75L10.45 -15.05" />
</g>
<g id="PathID_36" transform="matrix(0.270127, 0, 0, 0.270127, 162.55, 240.25)" opacity="1">
</g>
<g id="PathID_37" transform="matrix(0.270127, 0, 0, 0.270127, 171.75, 240.25)" opacity="1">
<path style="fill:#4E4E4E;fill-opacity:1" d="M3.95 0L3.95 -36.65L17.75 -36.65Q21.4 -36.65 23.3 -36.3Q26 -35.85 27.8 -34.55Q29.65 -33.3 30.75 -31Q31.9 -28.75 31.9 -26.05Q31.9 -21.35 28.9 -18.1Q25.95 -14.9 18.15 -14.9L8.8 -14.9L8.8 0L3.95 0M8.8 -19.25L18.25 -19.25Q22.95 -19.25 24.9 -20.95Q26.9 -22.7 26.9 -25.85Q26.9 -28.15 25.7 -29.8Q24.55 -31.45 22.65 -31.95Q21.45 -32.3 18.15 -32.3L8.8 -32.3L8.8 -19.25" />
</g>
<g id="PathID_38" transform="matrix(0.270127, 0, 0, 0.270127, 171.75, 240.25)" opacity="1">
</g>
<g id="PathID_39" transform="matrix(0.270127, 0, 0, 0.270127, 180.35, 240.25)" opacity="1">
<path style="fill:#4E4E4E;fill-opacity:1" d="M13.3 0L13.3 -32.3L1.2 -32.3L1.2 -36.65L30.25 -36.65L30.25 -32.3L18.15 -32.3L18.15 0L13.3 0" />
</g>
<g id="PathID_40" transform="matrix(0.270127, 0, 0, 0.270127, 180.35, 240.25)" opacity="1">
</g>
<g id="PathID_41" transform="matrix(0.270127, 0, 0, 0.270127, 188.8, 240.25)" opacity="1">
<path style="fill:#4E4E4E;fill-opacity:1" d="M4.15 0L4.15 -36.65L9 -36.65L9 -21.65L28 -21.65L28 -36.65L32.85 -36.65L32.85 0L28 0L28 -17.3L9 -17.3L9 0L4.15 0" />
</g>
<g id="PathID_42" transform="matrix(0.270127, 0, 0, 0.270127, 188.8, 240.25)" opacity="1">
</g>
<g id="PathID_43" transform="matrix(0.270127, 0, 0, 0.270127, 198.75, 240.25)" opacity="1">
<path style="fill:#4E4E4E;fill-opacity:1" d="M4.05 0L4.05 -36.65L30.55 -36.65L30.55 -32.3L8.9 -32.3L8.9 -21.15L29.15 -21.15L29.15 -16.8L8.9 -16.8L8.9 -4.35L31.4 -4.35L31.4 0L4.05 0" />
</g>
<g id="PathID_44" transform="matrix(0.270127, 0, 0, 0.270127, 198.75, 240.25)" opacity="1">
</g>
<g id="PathID_45" transform="matrix(0.270127, 0, 0, 0.270127, 207.95, 240.25)" opacity="1">
<path style="fill:#4E4E4E;fill-opacity:1" d="M3.95 0L3.95 -36.65L17.75 -36.65Q21.4 -36.65 23.3 -36.3Q26 -35.85 27.8 -34.55Q29.65 -33.3 30.75 -31Q31.9 -28.75 31.9 -26.05Q31.9 -21.35 28.9 -18.1Q25.95 -14.9 18.15 -14.9L8.8 -14.9L8.8 0L3.95 0M8.8 -19.25L18.25 -19.25Q22.95 -19.25 24.9 -20.95Q26.9 -22.7 26.9 -25.85Q26.9 -28.15 25.7 -29.8Q24.55 -31.45 22.65 -31.95Q21.45 -32.3 18.15 -32.3L8.8 -32.3L8.8 -19.25" />
</g>
<g id="PathID_46" transform="matrix(0.270127, 0, 0, 0.270127, 207.95, 240.25)" opacity="1">
</g>
<g id="PathID_47" transform="matrix(0.270127, 0, 0, 0.270127, 221.05, 240.25)" opacity="1">
<path style="fill:#4E4E4E;fill-opacity:1" d="M7.25 -36.65L29.6 -36.65L29.6 -4.35L32.9 -4.35L32.9 8.55L28.55 8.55L28.55 0L4.35 0L4.35 8.55L0 8.55L0 -4.35L2.85 -4.35Q7.25 -11 7.25 -31.3L7.25 -36.65M24.75 -32.3L11.95 -32.3L11.95 -30.4Q11.95 -25.75 11.1 -17.65Q10.25 -9.55 7.85 -4.35L24.75 -4.35L24.75 -32.3" />
</g>
<g id="PathID_48" transform="matrix(0.270127, 0, 0, 0.270127, 221.05, 240.25)" opacity="1">
</g>
<g id="PathID_49" transform="matrix(0.270127, 0, 0, 0.270127, 230.4, 240.25)" opacity="1">
<path style="fill:#4E4E4E;fill-opacity:1" d="M6.65 -36.65L29.55 -36.65L29.55 0L24.7 0L24.7 -32.3L11.5 -32.3L11.5 -13.45Q11.5 -7.7 10.95 -5Q10.4 -2.35 8.65 -0.85Q6.95 0.6 4.3 0.6Q2.7 0.6 0.45 -0.05L1.3 -4.4Q2.5 -3.75 3.35 -3.75Q5 -3.75 5.8 -4.95Q6.65 -6.2 6.65 -10.8L6.65 -36.65" />
</g>
<g id="PathID_50" transform="matrix(0.270127, 0, 0, 0.270127, 230.4, 240.25)" opacity="1">
</g>
<g id="PathID_51" transform="matrix(0.270127, 0, 0, 0.270127, 239.45, 240.25)" opacity="1">
<path style="fill:#4E4E4E;fill-opacity:1" d="M28.1 0L28.1 -16.3L22.45 -16.3Q20.6 -16.3 19.75 -16.1Q18.65 -15.8 17.55 -15.1Q16.45 -14.4 15.05 -12.65Q13.7 -10.9 11.6 -7.6L6.75 0L0.65 0L7 -9.95Q8.9 -12.9 11.05 -14.85Q12.05 -15.75 13.95 -16.7Q8.7 -17.4 6.15 -20.05Q3.65 -22.75 3.65 -26.65Q3.65 -29.65 5.15 -32.15Q6.7 -34.65 9.25 -35.65Q11.8 -36.65 16.7 -36.65L32.95 -36.65L32.95 0L28.1 0M28.1 -32.6L16.5 -32.6Q12.4 -32.6 10.5 -30.9Q8.65 -29.25 8.65 -26.65Q8.65 -24.85 9.6 -23.35Q10.6 -21.85 12.45 -21.15Q14.35 -20.5 17.65 -20.5L28.1 -20.5L28.1 -32.6" />
</g>
<g id="PathID_52" transform="matrix(0.270127, 0, 0, 0.270127, 239.45, 240.25)" opacity="1">
</g>
<g id="PathID_53" transform="matrix(0.270127, 0, 0, 0.270127, 253.3, 240.25)" opacity="1">
<path style="fill:#4E4E4E;fill-opacity:1" d="M3.75 0L3.75 -36.65L17.45 -36.65Q21.65 -36.65 24.15 -35.5Q26.7 -34.4 28.15 -32.1Q29.6 -29.8 29.6 -27.3Q29.6 -24.95 28.3 -22.85Q27 -20.8 24.45 -19.55Q27.8 -18.55 29.6 -16.2Q31.4 -13.85 31.4 -10.65Q31.4 -8.05 30.3 -5.8Q29.2 -3.6 27.6 -2.4Q26 -1.2 23.6 -0.6Q21.2 0 17.7 0L3.75 0M8.6 -21.3L16.45 -21.3Q19.65 -21.3 21.05 -21.7Q22.9 -22.25 23.85 -23.5Q24.8 -24.8 24.8 -26.7Q24.8 -28.5 23.9 -29.85Q23.05 -31.25 21.4 -31.75Q19.8 -32.3 15.85 -32.3L8.6 -32.3L8.6 -21.3M8.6 -4.35L17.7 -4.35Q20.05 -4.35 21 -4.5Q22.7 -4.8 23.8 -5.5Q24.95 -6.2 25.65 -7.55Q26.4 -8.9 26.4 -10.65Q26.4 -12.7 25.3 -14.2Q24.2 -15.7 22.35 -16.3Q20.5 -16.95 17 -16.95L8.6 -16.95L8.6 -4.35" />
</g>
<g id="PathID_54" transform="matrix(0.270127, 0, 0, 0.270127, 253.3, 240.25)" opacity="1">
</g>
<g id="PathID_55" transform="matrix(0.270127, 0, 0, 0.270127, 262, 240.25)" opacity="1">
<path style="fill:#4E4E4E;fill-opacity:1" d="M-0.05 0L14 -36.65L19.3 -36.65L34.25 0L28.75 0L24.5 -11.1L9.1 -11.1L5.1 0L-0.05 0M10.45 -15.05L22.95 -15.05L19.15 -25.2Q17.35 -29.8 16.5 -32.85Q15.8 -29.25 14.5 -25.75L10.45 -15.05" />
</g>
<g id="PathID_56" transform="matrix(0.270127, 0, 0, 0.270127, 262, 240.25)" opacity="1">
</g>
<g id="PathID_57" transform="matrix(0.270127, 0, 0, 0.270127, 271.25, 240.25)" opacity="1">
<path style="fill:#4E4E4E;fill-opacity:1" d="M4 -36.65L8.85 -36.65L8.85 -4.35L21.05 -4.35L21.05 -36.65L25.9 -36.65L25.9 -4.35L38.1 -4.35L38.1 -36.65L42.95 -36.65L42.95 0L4 0L4 -36.65" />
</g>
<g id="PathID_58" transform="matrix(0.270127, 0, 0, 0.270127, 271.25, 240.25)" opacity="1">
</g>
<g id="PathID_59" transform="matrix(0.270127, 0, 0, 0.270127, 283.9, 240.25)" opacity="1">
<path style="fill:#4E4E4E;fill-opacity:1" d="M4.05 0L4.05 -36.65L30.55 -36.65L30.55 -32.3L8.9 -32.3L8.9 -21.15L29.15 -21.15L29.15 -16.8L8.9 -16.8L8.9 -4.35L31.4 -4.35L31.4 0L4.05 0" />
</g>
<g id="PathID_60" transform="matrix(0.270127, 0, 0, 0.270127, 283.9, 240.25)" opacity="1">
</g>
<g id="PathID_61" transform="matrix(0.270127, 0, 0, 0.270127, 293.1, 240.25)" opacity="1">
<path style="fill:#4E4E4E;fill-opacity:1" d="M4.05 -36.65L27.8 -36.65L27.8 -32.3L8.9 -32.3L8.9 0L4.05 0L4.05 -36.65" />
</g>
<g id="PathID_62" transform="matrix(0.270127, 0, 0, 0.270127, 293.1, 240.25)" opacity="1">
</g>
<g id="PathID_63" transform="matrix(0.270127, 0, 0, 0.270127, 299.8, 240.25)" opacity="1">
<path style="fill:#4E4E4E;fill-opacity:1" d="M2.5 -17.85Q2.5 -26.95 7.4 -32.1Q12.3 -37.3 20.05 -37.3Q25.1 -37.3 29.15 -34.85Q33.25 -32.45 35.4 -28.1Q37.55 -23.75 37.55 -18.25Q37.55 -12.7 35.3 -8.3Q33.05 -3.9 28.9 -1.65Q24.8 0.6 20 0.6Q14.85 0.6 10.75 -1.85Q6.7 -4.35 4.6 -8.65Q2.5 -13 2.5 -17.85M7.5 -17.75Q7.5 -11.15 11.05 -7.35Q14.6 -3.55 20 -3.55Q25.45 -3.55 29 -7.35Q32.55 -11.2 32.55 -18.3Q32.55 -22.75 31 -26.05Q29.5 -29.4 26.6 -31.25Q23.7 -33.1 20.05 -33.1Q14.9 -33.1 11.2 -29.55Q7.5 -26 7.5 -17.75" />
</g>
<g id="PathID_64" transform="matrix(0.270127, 0, 0, 0.270127, 299.8, 240.25)" opacity="1">
</g>
<g id="PathID_65" transform="matrix(0.270127, 0, 0, 0.270127, 314.4, 240.25)" opacity="1">
<path style="fill:#4E4E4E;fill-opacity:1" d="M4.15 -36.65L27.95 -36.65L27.95 -32.3L9 -32.3L9 -21.05L17.75 -21.05Q22.6 -21.05 25.45 -20.1Q28.3 -19.15 30.05 -16.6Q31.8 -14.05 31.8 -10.65Q31.8 -7.85 30.55 -5.45Q29.3 -3.05 26.85 -1.5Q24.4 0 18.5 0L4.15 0L4.15 -36.65M9 -4.15L18.7 -4.15Q22.6 -4.15 24.55 -5.7Q26.55 -7.3 26.55 -10.5Q26.55 -12.8 25.4 -14.3Q24.3 -15.85 22.3 -16.35Q20.3 -16.85 15.45 -16.85L9 -16.85L9 -4.15" />
</g>
<g id="PathID_66" transform="matrix(0.270127, 0, 0, 0.270127, 314.4, 240.25)" opacity="1">
</g>
<g id="PathID_67" transform="matrix(0.270127, 0, 0, 0.270127, 323.5, 240.25)" opacity="1">
<path style="fill:#4E4E4E;fill-opacity:1" d="M4.05 -36.65L8.45 -36.65L8.45 -7.6L27.85 -36.65L32.75 -36.65L32.75 0L28.35 0L28.35 -28.95L8.9 0L4.05 0L4.05 -36.65" />
</g>
<g id="PathID_68" transform="matrix(0.270127, 0, 0, 0.270127, 323.5, 240.25)" opacity="1">
</g>
<g id="PathID_69" transform="matrix(0.270127, 0, 0, 0.270127, 333.4, 240.25)" opacity="1">
<path style="fill:#4E4E4E;fill-opacity:1" d="M1.95 -10.4L6.6 -11.6Q7.1 -8.9 9.35 -6.2Q11.65 -3.55 15.45 -3.55Q19.3 -3.55 21.5 -5.5Q23.75 -7.5 23.75 -10.3Q23.75 -13.3 21.4 -15.1Q19.05 -16.9 15 -16.9L12.7 -16.9L12.7 -21.15Q16 -21.15 17.75 -21.5Q19.5 -21.9 20.85 -23.45Q22.25 -25.05 22.25 -27.1Q22.25 -29.5 20.4 -31.25Q18.55 -33.05 15.35 -33.05Q12.6 -33.05 10.65 -31.65Q8.7 -30.25 7.95 -27.95Q7.25 -25.65 7.25 -24.55L2.6 -25.65Q4.3 -37.3 15.45 -37.3Q20.8 -37.3 23.95 -34.3Q27.1 -31.3 27.1 -27.3Q27.1 -22.2 22.25 -19.35Q25.05 -18.6 26.95 -16.2Q28.85 -13.8 28.85 -10.5Q28.85 -5.75 25.15 -2.55Q21.5 0.6 15.45 0.6Q5.05 0.6 1.95 -10.4" />
</g>
<g id="PathID_70" transform="matrix(0.270127, 0, 0, 0.270127, 333.4, 240.25)" opacity="1">
</g>
<g id="PathID_71" transform="matrix(0.270127, 0, 0, 0.270127, 341.75, 240.25)" opacity="1">
<path style="fill:#4E4E4E;fill-opacity:1" d="M4.15 0L4.15 -36.65L9 -36.65L9 -21.65L28 -21.65L28 -36.65L32.85 -36.65L32.85 0L28 0L28 -17.3L9 -17.3L9 0L4.15 0" />
</g>
<g id="PathID_72" transform="matrix(0.270127, 0, 0, 0.270127, 341.75, 240.25)" opacity="1">
</g>
<g id="PathID_73" transform="matrix(0.270127, 0, 0, 0.270127, 351.75, 240.25)" opacity="1">
<path style="fill:#4E4E4E;fill-opacity:1" d="M4.05 0L4.05 -36.65L30.55 -36.65L30.55 -32.3L8.9 -32.3L8.9 -21.15L29.15 -21.15L29.15 -16.8L8.9 -16.8L8.9 -4.35L31.4 -4.35L31.4 0L4.05 0" />
</g>
<g id="PathID_74" transform="matrix(0.270127, 0, 0, 0.270127, 351.75, 240.25)" opacity="1">
</g>
<g id="PathID_75" transform="matrix(0.270127, 0, 0, 0.270127, 360.95, 240.25)" opacity="1">
<path style="fill:#4E4E4E;fill-opacity:1" d="M30.1 -12.85L34.95 -11.65Q33.4 -5.65 29.45 -2.5Q25.5 0.6 19.75 0.6Q13.85 0.6 10.1 -1.8Q6.4 -4.2 4.45 -8.75Q2.55 -13.35 2.55 -18.6Q2.55 -24.35 4.7 -28.6Q6.9 -32.85 10.9 -35.05Q14.95 -37.3 19.8 -37.3Q25.3 -37.3 29.05 -34.5Q32.8 -31.7 34.3 -26.6L29.5 -25.5Q28.2 -29.5 25.75 -31.3Q23.35 -33.15 19.7 -33.15Q15.5 -33.15 12.65 -31.1Q9.8 -29.1 8.65 -25.65Q7.55 -22.25 7.55 -18.65Q7.55 -13.95 8.9 -10.45Q10.25 -7 13.1 -5.25Q16 -3.55 19.35 -3.55Q23.45 -3.55 26.25 -5.9Q29.1 -8.25 30.1 -12.85" />
</g>
<g id="PathID_76" transform="matrix(0.270127, 0, 0, 0.270127, 360.95, 240.25)" opacity="1">
</g>
<g id="PathID_77" transform="matrix(0.270127, 0, 0, 0.270127, 370.65, 240.25)" opacity="1">
<path style="fill:#4E4E4E;fill-opacity:1" d="M-0.05 0L14 -36.65L19.3 -36.65L34.25 0L28.75 0L24.5 -11.1L9.1 -11.1L5.1 0L-0.05 0M10.45 -15.05L22.95 -15.05L19.15 -25.2Q17.35 -29.8 16.5 -32.85Q15.8 -29.25 14.5 -25.75L10.45 -15.05" />
</g>
<g id="PathID_78" transform="matrix(0.270127, 0, 0, 0.270127, 370.65, 240.25)" opacity="1">
</g>
<g id="PathID_79" transform="matrix(1.2335, 0, 0, 0.965834, 194.25, 213.55)" opacity="1">
<linearGradient
id="LinearGradID_9" gradientUnits="userSpaceOnUse" gradientTransform="matrix(0.106008, -0.109774, 0.016438, 0.015874, 128.85, -18.2)" spreadMethod ="pad" x1="-819.2" y1="0" x2="819.2" y2="0" >
<stop  offset="1" style="stop-color:#2D3439;stop-opacity:1" />
<stop  offset="1" style="stop-color:#2D3439;stop-opacity:1" />
<stop  offset="1" style="stop-color:#26C4F4;stop-opacity:1" />
<stop  offset="1" style="stop-color:#26C4F4;stop-opacity:1" />
</linearGradient>
<path style="fill:url(#LinearGradID_9) " d="M3.85 -36.65L11.25 -36.65L11.25 -21.05Q13.7 -21.3 14.55 -22.3Q15.45 -23.35 17.3 -28Q19.6 -33.95 21.9 -35.4Q24.2 -36.85 29.35 -36.85L30.45 -36.9L30.45 -31.4L29.35 -31.4Q27.1 -31.4 26.05 -30.85Q25 -30.3 24.35 -29.15Q23.7 -28 22.4 -24.4Q21.75 -22.5 20.95 -21.2Q20.15 -19.95 18.15 -18.85Q20.65 -18.15 22.25 -16Q23.85 -13.9 25.8 -10.05L30.8 0L22.1 0L17.7 -9.45L17.3 -10.25L16.35 -11.95Q14.95 -14.65 14 -15.3Q13.1 -16 11.25 -16.05L11.25 0L3.85 0L3.85 -36.65" />
</g>
<g id="PathID_80" transform="matrix(1.2335, 0, 0, 0.965834, 194.25, 213.55)" opacity="1">
</g>
<g id="PathID_81" transform="matrix(1.2335, 0, 0, 0.965834, 227.4, 213.55)" opacity="1">
<linearGradient
id="LinearGradID_10" gradientUnits="userSpaceOnUse" gradientTransform="matrix(0.106008, -0.109774, 0.016438, 0.015874, 102, -18.2)" spreadMethod ="pad" x1="-819.2" y1="0" x2="819.2" y2="0" >
<stop  offset="1" style="stop-color:#2D3439;stop-opacity:1" />
<stop  offset="1" style="stop-color:#2D3439;stop-opacity:1" />
<stop  offset="1" style="stop-color:#26C4F4;stop-opacity:1" />
<stop  offset="1" style="stop-color:#26C4F4;stop-opacity:1" />
</linearGradient>
<path style="fill:url(#LinearGradID_10) " d="M2 -13.65Q2 -17.15 3.7 -20.4Q5.45 -23.7 8.6 -25.4Q11.75 -27.15 15.7 -27.15Q21.7 -27.15 25.55 -23.2Q29.45 -19.3 29.45 -13.35Q29.45 -7.3 25.55 -3.35Q21.65 0.6 15.75 0.6Q12.05 0.6 8.75 -1.05Q5.45 -2.7 3.7 -5.85Q2 -9.05 2 -13.65M9.2 -13.25Q9.2 -9.3 11.05 -7.2Q12.95 -5.15 15.7 -5.15Q18.45 -5.15 20.3 -7.2Q22.2 -9.3 22.2 -13.3Q22.2 -17.2 20.3 -19.3Q18.45 -21.4 15.7 -21.4Q12.95 -21.4 11.05 -19.3Q9.2 -17.2 9.2 -13.25" />
</g>
<g id="PathID_82" transform="matrix(1.2335, 0, 0, 0.965834, 227.4, 213.55)" opacity="1">
</g>
<g id="PathID_83" transform="matrix(1.2335, 0, 0, 0.965834, 260.7, 213.55)" opacity="1">
<linearGradient
id="LinearGradID_11" gradientUnits="userSpaceOnUse" gradientTransform="matrix(0.106008, -0.109774, 0.016438, 0.015874, 75, -18.2)" spreadMethod ="pad" x1="-819.2" y1="0" x2="819.2" y2="0" >
<stop  offset="1" style="stop-color:#2D3439;stop-opacity:1" />
<stop  offset="1" style="stop-color:#2D3439;stop-opacity:1" />
<stop  offset="1" style="stop-color:#26C4F4;stop-opacity:1" />
<stop  offset="1" style="stop-color:#26C4F4;stop-opacity:1" />
</linearGradient>
<path style="fill:url(#LinearGradID_11) " d="M3.4 -26.55L10.45 -26.55L10.45 -16.85L20.5 -16.85L20.5 -26.55L27.55 -26.55L27.55 0L20.5 0L20.5 -11.15L10.45 -11.15L10.45 0L3.4 0L3.4 -26.55" />
</g>
<g id="PathID_84" transform="matrix(1.2335, 0, 0, 0.965834, 260.7, 213.55)" opacity="1">
</g>
<g id="PathID_85" transform="matrix(1.2335, 0, 0, 0.965834, 293.6, 213.55)" opacity="1">
<linearGradient
id="LinearGradID_12" gradientUnits="userSpaceOnUse" gradientTransform="matrix(0.106008, -0.109774, 0.016438, 0.015874, 48.3, -18.2)" spreadMethod ="pad" x1="-819.2" y1="0" x2="819.2" y2="0" >
<stop  offset="1" style="stop-color:#2D3439;stop-opacity:1" />
<stop  offset="1" style="stop-color:#2D3439;stop-opacity:1" />
<stop  offset="1" style="stop-color:#26C4F4;stop-opacity:1" />
<stop  offset="1" style="stop-color:#26C4F4;stop-opacity:1" />
</linearGradient>
<path style="fill:url(#LinearGradID_12) " d="M26.85 -18.7L19.9 -17.45Q19.55 -19.5 18.3 -20.55Q17.05 -21.6 15.1 -21.6Q12.45 -21.6 10.9 -19.75Q9.35 -17.95 9.35 -13.7Q9.35 -9 10.9 -7.05Q12.5 -5.15 15.2 -5.15Q17.2 -5.15 18.45 -6.25Q19.75 -7.4 20.3 -10.2L27.2 -9Q26.1 -4.25 23.05 -1.8Q20 0.6 14.9 0.6Q9.05 0.6 5.6 -3.05Q2.15 -6.75 2.15 -13.25Q2.15 -19.8 5.6 -23.45Q9.1 -27.15 15 -27.15Q19.85 -27.15 22.7 -25.05Q25.6 -22.95 26.85 -18.7" />
</g>
<g id="PathID_86" transform="matrix(1.2335, 0, 0, 0.965834, 293.6, 213.55)" opacity="1">
</g>
<g id="PathID_87" transform="matrix(1.2335, 0, 0, 0.965834, 324.25, 213.55)" opacity="1">
<linearGradient
id="LinearGradID_13" gradientUnits="userSpaceOnUse" gradientTransform="matrix(0.106008, -0.109774, 0.016438, 0.015874, 23.45, -18.2)" spreadMethod ="pad" x1="-819.2" y1="0" x2="819.2" y2="0" >
<stop  offset="1" style="stop-color:#2D3439;stop-opacity:1" />
<stop  offset="1" style="stop-color:#2D3439;stop-opacity:1" />
<stop  offset="1" style="stop-color:#26C4F4;stop-opacity:1" />
<stop  offset="1" style="stop-color:#26C4F4;stop-opacity:1" />
</linearGradient>
<path style="fill:url(#LinearGradID_13) " d="M8.95 -18.35L2.6 -19.5Q3.65 -23.4 6.25 -25.25Q8.9 -27.15 14.05 -27.15Q18.75 -27.15 21.05 -26Q23.35 -24.9 24.3 -23.2Q25.25 -21.5 25.25 -16.9L25.15 -8.7Q25.15 -5.2 25.45 -3.55Q25.8 -1.9 26.75 0L19.8 0Q19.5 -0.7 19.1 -2.05L18.85 -2.9Q17.05 -1.15 15 -0.25Q12.95 0.6 10.65 0.6Q6.55 0.6 4.2 -1.6Q1.85 -3.8 1.85 -7.2Q1.85 -9.45 2.9 -11.2Q3.95 -12.95 5.9 -13.85Q7.85 -14.8 11.45 -15.5Q16.4 -16.45 18.3 -17.25L18.3 -17.95Q18.3 -20 17.3 -20.85Q16.3 -21.75 13.55 -21.75Q11.65 -21.75 10.6 -20.95Q9.55 -20.2 8.95 -18.35M18.3 -12.65Q16.95 -12.2 14.05 -11.55Q11.15 -10.95 10.25 -10.35Q8.9 -9.4 8.9 -7.9Q8.9 -6.45 9.95 -5.4Q11.05 -4.35 12.75 -4.35Q14.65 -4.35 16.35 -5.55Q17.6 -6.5 18 -7.85Q18.3 -8.75 18.3 -11.25L18.3 -12.65" />
</g>
<g id="PathID_88" transform="matrix(1.2335, 0, 0, 0.965834, 324.25, 213.55)" opacity="1">
</g>
<g id="PathID_89" transform="matrix(1.2335, 0, 0, 0.965834, 354.1, 213.55)" opacity="1">
<linearGradient
id="LinearGradID_14" gradientUnits="userSpaceOnUse" gradientTransform="matrix(0.106008, -0.109774, 0.016438, 0.015874, -0.7, -18.2)" spreadMethod ="pad" x1="-819.2" y1="0" x2="819.2" y2="0" >
<stop  offset="1" style="stop-color:#2D3439;stop-opacity:1" />
<stop  offset="1" style="stop-color:#2D3439;stop-opacity:1" />
<stop  offset="1" style="stop-color:#26C4F4;stop-opacity:1" />
<stop  offset="1" style="stop-color:#26C4F4;stop-opacity:1" />
</linearGradient>
<path style="fill:url(#LinearGradID_14) " d="M5.6 -26.55L29.1 -26.55L29.1 0L22.05 0L22.05 -20.85L12.55 -20.85L12.55 -8.9Q12.55 -4.35 11.5 -2.5Q10.45 -0.7 9.15 -0.1Q7.9 0.45 5.05 0.45Q3.4 0.45 0.65 0L0.65 -5.15L1.8 -5.1L3.5 -5.05Q4.95 -5.05 5.25 -5.95Q5.6 -6.9 5.6 -11.2L5.6 -26.55" />
</g>
<g id="PathID_90" transform="matrix(1.2335, 0, 0, 0.965834, 354.1, 213.55)" opacity="1">
</g>
<g id="PathID_91" transform="matrix(1.2335, 0, 0, 0.965834, 388.95, 213.55)" opacity="1">
<linearGradient
id="LinearGradID_15" gradientUnits="userSpaceOnUse" gradientTransform="matrix(0.106008, -0.109774, 0.016438, 0.015874, -28.95, -18.2)" spreadMethod ="pad" x1="-819.2" y1="0" x2="819.2" y2="0" >
<stop  offset="1" style="stop-color:#2D3439;stop-opacity:1" />
<stop  offset="1" style="stop-color:#2D3439;stop-opacity:1" />
<stop  offset="1" style="stop-color:#26C4F4;stop-opacity:1" />
<stop  offset="1" style="stop-color:#26C4F4;stop-opacity:1" />
</linearGradient>
<path style="fill:url(#LinearGradID_15) " d="M0.55 -26.55L24.6 -26.55L24.6 -20.85L16.1 -20.85L16.1 0L9.05 0L9.05 -20.85L0.55 -20.85L0.55 -26.55" />
</g>
<g id="PathID_92" transform="matrix(1.2335, 0, 0, 0.965834, 388.95, 213.55)" opacity="1">
</g>
<g id="PathID_93" transform="matrix(1.2335, 0, 0, 0.965834, 414.6, 213.55)" opacity="1">
<linearGradient
id="LinearGradID_16" gradientUnits="userSpaceOnUse" gradientTransform="matrix(0.106008, -0.109774, 0.016438, 0.015874, -49.75, -18.2)" spreadMethod ="pad" x1="-819.2" y1="0" x2="819.2" y2="0" >
<stop  offset="1" style="stop-color:#2D3439;stop-opacity:1" />
<stop  offset="1" style="stop-color:#2D3439;stop-opacity:1" />
<stop  offset="1" style="stop-color:#26C4F4;stop-opacity:1" />
<stop  offset="1" style="stop-color:#26C4F4;stop-opacity:1" />
</linearGradient>
<path style="fill:url(#LinearGradID_16) " d="M3.5 -26.55L10.25 -26.55L10.25 -9.8L21.1 -26.55L28 -26.55L28 0L21.25 0L21.25 -16.9L10.25 0L3.5 0L3.5 -26.55" />
</g>
<g id="PathID_94" transform="matrix(1.2335, 0, 0, 0.965834, 414.6, 213.55)" opacity="1">
</g>
<g id="PathID_95" transform="matrix(1.2335, 0, 0, 0.965834, 448.15, 213.55)" opacity="1">
<linearGradient
id="LinearGradID_17" gradientUnits="userSpaceOnUse" gradientTransform="matrix(0.106008, -0.109774, 0.016438, 0.015874, -76.95, -18.2)" spreadMethod ="pad" x1="-819.2" y1="0" x2="819.2" y2="0" >
<stop  offset="1" style="stop-color:#2D3439;stop-opacity:1" />
<stop  offset="1" style="stop-color:#2D3439;stop-opacity:1" />
<stop  offset="1" style="stop-color:#26C4F4;stop-opacity:1" />
<stop  offset="1" style="stop-color:#26C4F4;stop-opacity:1" />
</linearGradient>
<path style="fill:url(#LinearGradID_17) " d="M3.4 -26.55L10.45 -26.55L10.45 -16.85L20.5 -16.85L20.5 -26.55L27.55 -26.55L27.55 0L20.5 0L20.5 -11.15L10.45 -11.15L10.45 0L3.4 0L3.4 -26.55" />
</g>
<g id="PathID_96" transform="matrix(1.2335, 0, 0, 0.965834, 448.15, 213.55)" opacity="1">
</g>
<g id="PathID_97" transform="matrix(1.2335, 0, 0, 0.965834, 481.05, 213.55)" opacity="1">
<linearGradient
id="LinearGradID_18" gradientUnits="userSpaceOnUse" gradientTransform="matrix(0.106008, -0.109774, 0.016438, 0.015874, -103.65, -18.2)" spreadMethod ="pad" x1="-819.2" y1="0" x2="819.2" y2="0" >
<stop  offset="1" style="stop-color:#2D3439;stop-opacity:1" />
<stop  offset="1" style="stop-color:#2D3439;stop-opacity:1" />
<stop  offset="1" style="stop-color:#26C4F4;stop-opacity:1" />
<stop  offset="1" style="stop-color:#26C4F4;stop-opacity:1" />
</linearGradient>
<path style="fill:url(#LinearGradID_18) " d="M3.4 -26.55L21.35 -26.55L21.35 -20.85L10.45 -20.85L10.45 0L3.4 0L3.4 -26.55" />
</g>
<g id="PathID_98" transform="matrix(1.2335, 0, 0, 0.965834, 481.05, 213.55)" opacity="1">
</g>
</svg>
