<?xml version="1.0" encoding="utf-8"?>
<svg version="1.1" id="Layer_1"
xmlns="http://www.w3.org/2000/svg"
xmlns:xlink="http://www.w3.org/1999/xlink"
width="116px" height="90px"
xml:space="preserve">
<filter id="filter129" x="-0.529762" y="-0.529762" width="2.25973" height="2.26638" >
<feComponentTransfer in="SourceGraphic">
	<feFuncR type="linear" slope="0"/>
	<feFuncG type="linear" slope="0"/>
	<feFuncB type="linear" slope="0"/>
</feComponentTransfer>
<feGaussianBlur stdDeviation="1 1" />
<feOffset dx="2.12135" dy="2.12129"/>
<feComponentTransfer result="127">
	<feFuncR type="linear" Ue="0" intercept="0.486275"/>
	<feFuncG type="linear" Ue="0" intercept="0.423529"/>
	<feFuncB type="linear" Ue="0" intercept="0.141176"/>
	<feFuncA type="linear" xh="0" slope="0.5"/>
</feComponentTransfer>
<feComposite result="128"  in="SourceGraphic" in2="127" operator="over"/>
</filter>
<g style="filter:url(#filter129);">
<g id="PathID_1029" transform="matrix(0.702703, 0, 0, 0.702703, 5.05, 5.05)" opacity="1">
<linearGradient
id="LinearGradID_163" gradientUnits="userSpaceOnUse" gradientTransform="matrix(-0.0646512, 0.0646512, -0.0646512, -0.0646512, 74.95, 56.3)" spreadMethod ="pad" x1="-819.2" y1="0" x2="819.2" y2="0" >
<stop  offset="0" style="stop-color:#FFE03C;stop-opacity:1" />
<stop  offset="1" style="stop-color:#725106;stop-opacity:1" />
</linearGradient>
<path style="fill:url(#LinearGradID_163) " d="M146.15 40.85Q148.8 44.8 149.65 51.05Q150.4 56.85 149.15 61.65Q147.65 67.25 143.4 66.65L133.8 63.8L133.5 63.8Q126 62.6 123.8 61.5Q119.8 59.75 121.25 54.35Q122.65 49.45 126 44.8Q111.05 27.55 91.7 22.95Q73.85 18.9 54.25 25.95Q54.85 31.85 53.75 36.5Q52.35 42.1 47.9 41.55L38.25 38.75L37.65 38.65Q30.35 37.45 27.95 36.2Q24.4 34.55 25.7 29.2Q27.1 24.25 30.6 19.55Q34.3 14.75 38.6 12.5Q42.3 9.85 45.65 8Q57 1.85 70.7 0.45Q83.7 -1.05 97.1 2.2Q111.05 5.55 122.65 13.4Q134.6 21.3 142 32.8Q144.1 36.2 146.15 40.85M115.85 46.15Q117.2 59.75 124.5 69.65L132.75 81.45Q137.15 87.9 138.15 93.05L138.7 95.8L138.7 96.35Q138.5 103.2 132.75 107.85Q127.5 112.5 120.25 112.5L53.3 112.5Q49 112.5 45.05 110.65Q40.65 108.6 37.85 104.9Q35 101 35 96.65L35 95.45L35.1 93.05Q36.1 88.65 39.1 83.5Q40.75 80.5 45.05 74.35L48.4 69.65Q55.2 59.6 56.35 46.15Q56.75 41.15 58.5 37.85Q60.6 34.45 63.15 34.45L72.65 34.45Q71.8 37.85 71.8 40.85Q71.8 45.5 74.55 46.75Q76.1 47.5 79.6 47.3L86.15 46.85L87.05 46.85L94.3 47.3Q97.55 47.3 99 46.15Q100.65 44.55 100.65 40.85Q100.65 37.85 99.85 34.45L108.9 34.45Q111.7 34.45 113.5 37.85Q115.25 41.15 115.85 46.15M103.55 69.15Q103.55 68 102.75 67.25Q101.95 66.3 100.65 66.3L97.3 66.3Q96.25 66.3 95.45 67.25Q94.6 68 94.6 69.15L94.6 72.45Q94.6 73.75 95.45 74.35Q96.25 75.3 97.3 75.3L100.65 75.3Q101.95 75.3 102.75 74.35Q103.55 73.75 103.55 72.45L103.55 69.15M102.75 54.95Q101.95 54.05 100.65 54.05L97.3 54.05Q96.25 54.05 95.45 54.95Q94.6 55.7 94.6 56.85L94.6 60.25Q94.6 61.45 95.45 62.05Q96.25 63 97.3 63L100.65 63Q101.95 63 102.75 62.05Q103.55 61.45 103.55 60.25L103.55 56.85Q103.55 55.7 102.75 54.95M91.6 56.85Q91.6 55.7 90.8 54.95Q90.05 54.05 88.9 54.05L85.4 54.05Q84.3 54.05 83.5 54.95Q82.75 55.7 82.75 56.85L82.75 60.25Q82.75 61.45 83.5 62.05Q84.3 63 85.4 63L88.9 63Q90.05 63 90.8 62.05Q91.6 61.45 91.6 60.25L91.6 56.85M82.75 72.45Q82.75 73.75 83.5 74.35Q84.3 75.3 85.4 75.3L88.9 75.3Q90.05 75.3 90.8 74.35Q91.6 73.75 91.6 72.45L91.6 69.15Q91.6 68 90.8 67.25Q90.05 66.3 88.9 66.3L85.4 66.3Q84.3 66.3 83.5 67.25Q82.75 68 82.75 69.15L82.75 72.45M91.6 81.35Q91.6 80.15 90.8 79.35Q90.05 78.45 88.9 78.45L85.4 78.45Q84.3 78.45 83.5 79.35Q82.75 80.15 82.75 81.35L82.75 84.6Q82.75 85.75 83.5 86.6Q84.3 87.4 85.4 87.4L88.9 87.4Q90.05 87.4 90.8 86.6Q91.6 85.75 91.6 84.6L91.6 81.35M95.45 79.35Q94.6 80.15 94.6 81.35L94.6 84.6Q94.6 85.75 95.45 86.6Q96.25 87.4 97.3 87.4L100.65 87.4Q101.95 87.4 102.75 86.6Q103.55 85.75 103.55 84.6L103.55 81.35Q103.55 80.15 102.75 79.35Q101.95 78.45 100.65 78.45L97.3 78.45Q96.25 78.45 95.45 79.35M146.75 60Q147 57.4 146.1 55.75Q144.15 56.15 143.4 57.05Q142.75 58.1 141.5 58.1L135.55 56.85Q122.8 54.5 123.25 57.7L134.6 60.4Q143.35 62.75 144.45 62.75Q146.35 62.75 146.75 60M96.9 3.6Q87.65 1.35 78.95 1.35Q70.8 1.35 66.05 3.2Q85.4 2.95 96.25 5.55Q107.75 8.25 124.1 17Q113.35 7.6 96.9 3.6M10.05 35.75Q12.15 44.15 17.7 49.7Q22.95 55.35 31.15 58.1Q35 59.4 37.85 60Q25.3 61.65 15.65 51.5Q6.15 41.2 8.4 28.85Q8.7 28.7 10.05 35.75M2.3 37.65Q5.15 47.7 11.8 54.5Q18.25 61.5 28.15 64.9L36.55 67.25Q36.7 67.65 34.15 67.8L27.45 67.05Q16.8 64.65 9.35 56.8Q-2.25 44.5 0.5 29.2Q0.95 29.2 2.3 37.65M33.35 30.6Q32.4 30.2 32.05 28.95Q31.85 27.8 30.35 26.5Q28.95 27.55 27.85 29.85Q26.85 32.65 28.5 33.35Q29.4 34 38.25 36.2L49.4 39.5Q51.4 36.85 39.1 32.8L33.35 30.6M38.25 97.3Q38.6 103.95 45.05 107.1Q47.75 108.4 51.95 109.15Q47.9 106.75 45.05 103.65Q41 99.45 40.15 94.25L39.4 87.55Q38 95.05 38.25 97.3M72.85 54.05Q71.6 54.05 70.8 54.95Q69.95 55.7 69.95 56.85L69.95 60.25Q69.95 61.45 70.8 62.05Q71.6 63 72.85 63L76.1 63Q77.3 63 78.1 62.05Q78.95 61.45 78.95 60.25L78.95 56.85Q78.95 55.7 78.1 54.95Q77.3 54.05 76.1 54.05L72.85 54.05M69.95 72.45Q69.95 73.75 70.8 74.35Q71.6 75.3 72.85 75.3L76.1 75.3Q77.3 75.3 78.1 74.35Q78.95 73.75 78.95 72.45L78.95 69.15Q78.95 68 78.1 67.25Q77.3 66.3 76.1 66.3L72.85 66.3Q71.6 66.3 70.8 67.25Q69.95 68 69.95 69.15L69.95 72.45M76.1 78.45L72.85 78.45Q71.6 78.45 70.8 79.35Q69.95 80.15 69.95 81.35L69.95 84.6Q69.95 85.75 70.8 86.6Q71.6 87.4 72.85 87.4L76.1 87.4Q77.3 87.4 78.1 86.6Q78.95 85.75 78.95 84.6L78.95 81.35Q78.95 80.15 78.1 79.35Q77.3 78.45 76.1 78.45" />
</g>
<g id="PathID_1030" transform="matrix(0.702703, 0, 0, 0.702703, 5.05, 5.05)" opacity="1">
</g>
</g>
</svg>
