<?xml version="1.0" encoding="utf-8"?>
<svg version="1.1" id="Layer_1"
xmlns="http://www.w3.org/2000/svg"
xmlns:xlink="http://www.w3.org/1999/xlink"
width="116px" height="90px"
xml:space="preserve">
<filter id="filter135" x="-0.529762" y="-0.529762" width="2.28032" height="2.2694" >
<feComponentTransfer in="SourceGraphic">
	<feFuncR type="linear" slope="0"/>
	<feFuncG type="linear" slope="0"/>
	<feFuncB type="linear" slope="0"/>
</feComponentTransfer>
<feGaussianBlur stdDeviation="1 1" />
<feOffset dx="2.12135" dy="2.12129"/>
<feComponentTransfer result="133">
	<feFuncR type="linear" Ue="0" intercept="0.486275"/>
	<feFuncG type="linear" Ue="0" intercept="0.423529"/>
	<feFuncB type="linear" Ue="0" intercept="0.141176"/>
	<feFuncA type="linear" xh="0" slope="0.5"/>
</feComponentTransfer>
<feComposite result="134"  in="SourceGraphic" in2="133" operator="over"/>
</filter>
<g style="filter:url(#filter135);">
<g id="PathID_1061" transform="matrix(0.405695, 0.128743, -0.128743, 0.405695, 7.7, 10.9)" opacity="1">
<linearGradient
id="LinearGradID_165" gradientUnits="userSpaceOnUse" gradientTransform="matrix(-0.0646728, 0.0646728, -0.0646728, -0.0646728, 74.9, 74.95)" spreadMethod ="pad" x1="-819.2" y1="0" x2="819.2" y2="0" >
<stop  offset="0" style="stop-color:#FFE03C;stop-opacity:1" />
<stop  offset="1" style="stop-color:#725106;stop-opacity:1" />
</linearGradient>
<path style="fill:url(#LinearGradID_165) " d="M113.25 89.7Q115.8 87.15 119.4 87.15Q122.9 87.15 125.45 89.7L147.2 111.65Q149.85 114.15 149.85 117.7Q149.85 121.15 147.2 123.65L138.65 132.35L104.6 98.35L113.25 89.7M51.35 45.4L17.05 11.1L25.8 2.4Q28.45 0 32.05 0Q35.75 0 38.3 2.4L60.15 24.4Q62.5 26.9 62.5 30.5Q62.5 34.05 60.15 36.7L51.35 45.4M12.95 15.25L47.6 49.7Q31.8 65.4 52.2 85.5L64.5 97.8Q84.65 118.25 100.35 102.45L134.65 137.15L133.2 138.3Q117.8 153.65 95.35 148.85Q74.3 144.55 53.95 124.25L25.8 96.05Q5.75 75.8 1.15 54.75Q-3.8 32.2 11.8 16.85L12.95 15.25" />
</g>
<g id="PathID_1062" transform="matrix(0.405695, 0.128743, -0.128743, 0.405695, 7.7, 10.9)" opacity="1">
</g>
</g>
<g id="PathID_1063" transform="matrix(0.394786, 0, 0, 0.394786, 27.05, 48.25)" opacity="1">
<path style="fill:#313131;fill-opacity:1" d="M9.3 -12L9.3 -15.55Q12.1 -15.55 13.1 -15.75Q14.15 -15.95 15.05 -16.95Q16 -17.95 16 -19.45Q16 -21.25 14.75 -22.35Q13.55 -23.45 11.65 -23.45Q7.9 -23.45 6.4 -19L2.1 -19.7Q4.05 -27.15 11.7 -27.15Q15.95 -27.15 18.35 -24.8Q20.8 -22.5 20.8 -19.25Q20.8 -16 17.65 -14.1Q19.65 -13 20.65 -11.35Q21.65 -9.7 21.65 -7.4Q21.65 -3.85 19.05 -1.6Q16.45 0.6 11.75 0.6Q2.7 0.6 1.25 -7.5L5.5 -8.4Q6.05 -5.85 7.8 -4.45Q9.55 -3.05 11.85 -3.05Q14.1 -3.05 15.6 -4.3Q17.15 -5.6 17.15 -7.6Q17.15 -9.15 16.2 -10.3Q15.25 -11.45 14.15 -11.7Q13.1 -12 10.3 -12L9.3 -12" />
</g>
<g id="PathID_1064" transform="matrix(0.394786, 0, 0, 0.394786, 27.05, 48.25)" opacity="1">
</g>
<g id="PathID_1065" transform="matrix(0.394786, 0, 0, 0.394786, 36.3, 48.25)" opacity="1">
<path style="fill:#313131;fill-opacity:1" d="M20.7 -3.35Q18.2 -1.15 15.85 -0.25Q13.55 0.6 10.9 0.6Q6.55 0.6 4.2 -1.5Q1.85 -3.65 1.85 -7Q1.85 -8.95 2.7 -10.55Q3.6 -12.15 5.05 -13.1Q6.5 -14.1 8.3 -14.6Q9.6 -14.95 12.3 -15.3Q17.75 -15.95 20.3 -16.85L20.35 -18Q20.35 -20.75 19.05 -21.85Q17.35 -23.4 13.95 -23.4Q10.75 -23.4 9.25 -22.25Q7.75 -21.15 7.05 -18.35L2.65 -18.95Q3.25 -21.75 4.6 -23.5Q6 -25.25 8.6 -26.2Q11.2 -27.15 14.6 -27.15Q18 -27.15 20.1 -26.3Q22.25 -25.5 23.25 -24.3Q24.25 -23.1 24.65 -21.25Q24.9 -20.1 24.9 -17.1L24.9 -11.1Q24.9 -4.85 25.15 -3.15Q25.45 -1.5 26.3 0L21.6 0Q20.9 -1.4 20.7 -3.35M20.3 -13.3Q17.85 -12.3 12.95 -11.6Q10.15 -11.2 9 -10.7Q7.85 -10.2 7.25 -9.2Q6.65 -8.25 6.65 -7.1Q6.65 -5.3 8 -4.1Q9.35 -2.95 12 -2.95Q14.6 -2.95 16.6 -4.05Q18.65 -5.2 19.6 -7.15Q20.3 -8.65 20.3 -11.65L20.3 -13.3" />
</g>
<g id="PathID_1066" transform="matrix(0.394786, 0, 0, 0.394786, 36.3, 48.25)" opacity="1">
</g>
<g id="PathID_1067" transform="matrix(0.394786, 0, 0, 0.394786, 47.55, 48.25)" opacity="1">
<path style="fill:#313131;fill-opacity:1" d="M3.35 -26.55L7.85 -26.55L7.85 -15.1Q10 -15.1 10.85 -15.9Q11.7 -16.7 13.4 -20.7Q14.7 -23.85 15.5 -24.85Q16.35 -25.85 17.4 -26.2Q18.5 -26.55 20.9 -26.55L21.8 -26.55L21.8 -22.8L20.55 -22.85Q18.75 -22.85 18.25 -22.3Q17.75 -21.75 16.65 -19.05Q15.65 -16.45 14.8 -15.45Q13.95 -14.45 12.15 -13.65Q15.05 -12.85 17.85 -8.2L22.8 0L17.85 0L13 -8.2Q11.55 -10.7 10.45 -11.5Q9.35 -12.3 7.85 -12.3L7.85 0L3.35 0L3.35 -26.55" />
</g>
<g id="PathID_1068" transform="matrix(0.394786, 0, 0, 0.394786, 47.55, 48.25)" opacity="1">
</g>
<g id="PathID_1069" transform="matrix(0.394786, 0, 0, 0.394786, 56.85, 48.25)" opacity="1">
<path style="fill:#313131;fill-opacity:1" d="M20.7 -3.35Q18.2 -1.15 15.85 -0.25Q13.55 0.6 10.9 0.6Q6.55 0.6 4.2 -1.5Q1.85 -3.65 1.85 -7Q1.85 -8.95 2.7 -10.55Q3.6 -12.15 5.05 -13.1Q6.5 -14.1 8.3 -14.6Q9.6 -14.95 12.3 -15.3Q17.75 -15.95 20.3 -16.85L20.35 -18Q20.35 -20.75 19.05 -21.85Q17.35 -23.4 13.95 -23.4Q10.75 -23.4 9.25 -22.25Q7.75 -21.15 7.05 -18.35L2.65 -18.95Q3.25 -21.75 4.6 -23.5Q6 -25.25 8.6 -26.2Q11.2 -27.15 14.6 -27.15Q18 -27.15 20.1 -26.3Q22.25 -25.5 23.25 -24.3Q24.25 -23.1 24.65 -21.25Q24.9 -20.1 24.9 -17.1L24.9 -11.1Q24.9 -4.85 25.15 -3.15Q25.45 -1.5 26.3 0L21.6 0Q20.9 -1.4 20.7 -3.35M20.3 -13.3Q17.85 -12.3 12.95 -11.6Q10.15 -11.2 9 -10.7Q7.85 -10.2 7.25 -9.2Q6.65 -8.25 6.65 -7.1Q6.65 -5.3 8 -4.1Q9.35 -2.95 12 -2.95Q14.6 -2.95 16.6 -4.05Q18.65 -5.2 19.6 -7.15Q20.3 -8.65 20.3 -11.65L20.3 -13.3" />
</g>
<g id="PathID_1070" transform="matrix(0.394786, 0, 0, 0.394786, 56.85, 48.25)" opacity="1">
</g>
<g id="PathID_1071" transform="matrix(0.394786, 0, 0, 0.394786, 67.8, 48.25)" opacity="1">
<path style="fill:#313131;fill-opacity:1" d="M9.3 -12L9.3 -15.55Q12.1 -15.55 13.1 -15.75Q14.15 -15.95 15.05 -16.95Q16 -17.95 16 -19.45Q16 -21.25 14.75 -22.35Q13.55 -23.45 11.65 -23.45Q7.9 -23.45 6.4 -19L2.1 -19.7Q4.05 -27.15 11.7 -27.15Q15.95 -27.15 18.35 -24.8Q20.8 -22.5 20.8 -19.25Q20.8 -16 17.65 -14.1Q19.65 -13 20.65 -11.35Q21.65 -9.7 21.65 -7.4Q21.65 -3.85 19.05 -1.6Q16.45 0.6 11.75 0.6Q2.7 0.6 1.25 -7.5L5.5 -8.4Q6.05 -5.85 7.8 -4.45Q9.55 -3.05 11.85 -3.05Q14.1 -3.05 15.6 -4.3Q17.15 -5.6 17.15 -7.6Q17.15 -9.15 16.2 -10.3Q15.25 -11.45 14.15 -11.7Q13.1 -12 10.3 -12L9.3 -12" />
</g>
<g id="PathID_1072" transform="matrix(0.394786, 0, 0, 0.394786, 67.8, 48.25)" opacity="1">
</g>
<g id="PathID_1073" transform="matrix(0.394786, 0, 0, 0.394786, 77.1, 48.25)" opacity="1">
<path style="fill:#313131;fill-opacity:1" d="M20.7 -3.35Q18.2 -1.15 15.85 -0.25Q13.55 0.6 10.9 0.6Q6.55 0.6 4.2 -1.5Q1.85 -3.65 1.85 -7Q1.85 -8.95 2.7 -10.55Q3.6 -12.15 5.05 -13.1Q6.5 -14.1 8.3 -14.6Q9.6 -14.95 12.3 -15.3Q17.75 -15.95 20.3 -16.85L20.35 -18Q20.35 -20.75 19.05 -21.85Q17.35 -23.4 13.95 -23.4Q10.75 -23.4 9.25 -22.25Q7.75 -21.15 7.05 -18.35L2.65 -18.95Q3.25 -21.75 4.6 -23.5Q6 -25.25 8.6 -26.2Q11.2 -27.15 14.6 -27.15Q18 -27.15 20.1 -26.3Q22.25 -25.5 23.25 -24.3Q24.25 -23.1 24.65 -21.25Q24.9 -20.1 24.9 -17.1L24.9 -11.1Q24.9 -4.85 25.15 -3.15Q25.45 -1.5 26.3 0L21.6 0Q20.9 -1.4 20.7 -3.35M20.3 -13.3Q17.85 -12.3 12.95 -11.6Q10.15 -11.2 9 -10.7Q7.85 -10.2 7.25 -9.2Q6.65 -8.25 6.65 -7.1Q6.65 -5.3 8 -4.1Q9.35 -2.95 12 -2.95Q14.6 -2.95 16.6 -4.05Q18.65 -5.2 19.6 -7.15Q20.3 -8.65 20.3 -11.65L20.3 -13.3" />
</g>
<g id="PathID_1074" transform="matrix(0.394786, 0, 0, 0.394786, 77.1, 48.25)" opacity="1">
</g>
<g id="PathID_1075" transform="matrix(0.394786, 0, 0, 0.394786, 87.85, 48.25)" opacity="1">
<path style="fill:#313131;fill-opacity:1" d="M0.95 -26.55L22.55 -26.55L22.55 -22.8L14 -22.8L14 0L9.5 0L9.5 -22.8L0.95 -22.8L0.95 -26.55" />
</g>
<g id="PathID_1076" transform="matrix(0.394786, 0, 0, 0.394786, 87.85, 48.25)" opacity="1">
</g>
<g id="PathID_1077" transform="matrix(0.394786, 0, 0, 0.394786, 97.1, 48.25)" opacity="1">
<path style="fill:#313131;fill-opacity:1" d="M3.3 -26.55L7.8 -26.55L7.8 -16.2L13.5 -16.2Q19.05 -16.2 22.05 -14Q25.1 -11.85 25.1 -8.05Q25.1 -4.7 22.55 -2.35Q20.05 0 14.55 0L3.3 0L3.3 -26.55M7.8 -3.7L12.5 -3.7Q16.8 -3.7 18.6 -4.75Q20.45 -5.8 20.45 -8Q20.45 -9.75 19.1 -11.1Q17.75 -12.45 13.1 -12.45L7.8 -12.45L7.8 -3.7" />
</g>
<g id="PathID_1078" transform="matrix(0.394786, 0, 0, 0.394786, 97.1, 48.25)" opacity="1">
</g>
<g id="PathID_1079" transform="matrix(0.394786, 0, 0, 0.394786, 50.25, 63.75)" opacity="1">
<path style="fill:#313131;fill-opacity:1" d="M9.3 -12L9.3 -15.55Q12.1 -15.55 13.1 -15.75Q14.15 -15.95 15.05 -16.95Q16 -17.95 16 -19.45Q16 -21.25 14.75 -22.35Q13.55 -23.45 11.65 -23.45Q7.9 -23.45 6.4 -19L2.1 -19.7Q4.05 -27.15 11.7 -27.15Q15.95 -27.15 18.35 -24.8Q20.8 -22.5 20.8 -19.25Q20.8 -16 17.65 -14.1Q19.65 -13 20.65 -11.35Q21.65 -9.7 21.65 -7.4Q21.65 -3.85 19.05 -1.6Q16.45 0.6 11.75 0.6Q2.7 0.6 1.25 -7.5L5.5 -8.4Q6.05 -5.85 7.8 -4.45Q9.55 -3.05 11.85 -3.05Q14.1 -3.05 15.6 -4.3Q17.15 -5.6 17.15 -7.6Q17.15 -9.15 16.2 -10.3Q15.25 -11.45 14.15 -11.7Q13.1 -12 10.3 -12L9.3 -12" />
</g>
<g id="PathID_1080" transform="matrix(0.394786, 0, 0, 0.394786, 50.25, 63.75)" opacity="1">
</g>
<g id="PathID_1081" transform="matrix(0.394786, 0, 0, 0.394786, 59.5, 63.75)" opacity="1">
<path style="fill:#313131;fill-opacity:1" d="M3.4 -26.55L13.75 -26.55Q17.55 -26.55 19.4 -25.9Q21.25 -25.25 22.6 -23.55Q23.95 -21.85 23.95 -19.5Q23.95 -17.6 23.15 -16.15Q22.35 -14.75 20.75 -13.85Q22.65 -13.2 23.9 -11.45Q25.15 -9.75 25.15 -7.4Q24.9 -3.65 22.45 -1.8Q20 0 15.3 0L3.4 0L3.4 -26.55M7.9 -15.4L12.6 -15.4Q15.45 -15.4 16.5 -15.65Q17.6 -15.95 18.45 -16.85Q19.3 -17.8 19.3 -19.05Q19.3 -21.15 17.8 -21.95Q16.35 -22.8 12.75 -22.8L7.9 -22.8L7.9 -15.4M7.9 -3.7L13.75 -3.7Q17.55 -3.7 18.95 -4.55Q20.4 -5.45 20.5 -7.65Q20.5 -8.9 19.65 -10Q18.85 -11.1 17.5 -11.4Q16.2 -11.7 13.3 -11.7L7.9 -11.7L7.9 -3.7" />
</g>
<g id="PathID_1082" transform="matrix(0.394786, 0, 0, 0.394786, 59.5, 63.75)" opacity="1">
</g>
<g id="PathID_1083" transform="matrix(0.394786, 0, 0, 0.394786, 70, 63.75)" opacity="1">
<path style="fill:#313131;fill-opacity:1" d="M1.7 -13.25Q1.7 -20.65 5.8 -24.2Q9.2 -27.15 14.15 -27.15Q19.6 -27.15 23.1 -23.55Q26.6 -19.95 26.6 -13.65Q26.6 -8.5 25.05 -5.55Q23.5 -2.65 20.55 -1Q17.6 0.6 14.15 0.6Q8.55 0.6 5.1 -2.95Q1.7 -6.55 1.7 -13.25M6.35 -13.25Q6.35 -8.15 8.55 -5.6Q10.75 -3.1 14.15 -3.1Q17.5 -3.1 19.7 -5.6Q21.95 -8.15 21.95 -13.4Q21.95 -18.3 19.7 -20.85Q17.45 -23.4 14.15 -23.4Q10.75 -23.4 8.55 -20.85Q6.35 -18.35 6.35 -13.25" />
</g>
<g id="PathID_1084" transform="matrix(0.394786, 0, 0, 0.394786, 70, 63.75)" opacity="1">
</g>
<g id="PathID_1085" transform="matrix(0.394786, 0, 0, 0.394786, 81.25, 63.75)" opacity="1">
<path style="fill:#313131;fill-opacity:1" d="M3.4 -26.55L7.9 -26.55L7.9 -15.55L20.4 -15.55L20.4 -26.55L24.9 -26.55L24.9 0L20.4 0L20.4 -11.8L7.9 -11.8L7.9 0L3.4 0L3.4 -26.55" />
</g>
<g id="PathID_1086" transform="matrix(0.394786, 0, 0, 0.394786, 81.25, 63.75)" opacity="1">
</g>
<g id="PathID_1087" transform="matrix(0.394786, 0, 0, 0.394786, 92.4, 63.75)" opacity="1">
<path style="fill:#313131;fill-opacity:1" d="M1.7 -13.25Q1.7 -20.65 5.8 -24.2Q9.2 -27.15 14.15 -27.15Q19.6 -27.15 23.1 -23.55Q26.6 -19.95 26.6 -13.65Q26.6 -8.5 25.05 -5.55Q23.5 -2.65 20.55 -1Q17.6 0.6 14.15 0.6Q8.55 0.6 5.1 -2.95Q1.7 -6.55 1.7 -13.25M6.35 -13.25Q6.35 -8.15 8.55 -5.6Q10.75 -3.1 14.15 -3.1Q17.5 -3.1 19.7 -5.6Q21.95 -8.15 21.95 -13.4Q21.95 -18.3 19.7 -20.85Q17.45 -23.4 14.15 -23.4Q10.75 -23.4 8.55 -20.85Q6.35 -18.35 6.35 -13.25" />
</g>
<g id="PathID_1088" transform="matrix(0.394786, 0, 0, 0.394786, 92.4, 63.75)" opacity="1">
</g>
<g id="PathID_1089" transform="matrix(0.394786, 0, 0, 0.394786, 103.65, 63.75)" opacity="1">
<path style="fill:#313131;fill-opacity:1" d="M3.35 -26.55L7.85 -26.55L7.85 -15.1Q10 -15.1 10.85 -15.9Q11.7 -16.7 13.4 -20.7Q14.7 -23.85 15.5 -24.85Q16.35 -25.85 17.4 -26.2Q18.5 -26.55 20.9 -26.55L21.8 -26.55L21.8 -22.8L20.55 -22.85Q18.75 -22.85 18.25 -22.3Q17.75 -21.75 16.65 -19.05Q15.65 -16.45 14.8 -15.45Q13.95 -14.45 12.15 -13.65Q15.05 -12.85 17.85 -8.2L22.8 0L17.85 0L13 -8.2Q11.55 -10.7 10.45 -11.5Q9.35 -12.3 7.85 -12.3L7.85 0L3.35 0L3.35 -26.55" />
</g>
<g id="PathID_1090" transform="matrix(0.394786, 0, 0, 0.394786, 103.65, 63.75)" opacity="1">
</g>
</svg>
