<?xml version="1.0" encoding="utf-8"?>
<svg version="1.1" id="Layer_1"
xmlns="http://www.w3.org/2000/svg"
xmlns:xlink="http://www.w3.org/1999/xlink"
width="550px" height="400px"
xml:space="preserve">
<filter id="filter7" x="-0.549524" y="-0.549524" width="2.3179" height="2.32216" >
<feComponentTransfer in="SourceGraphic">
	<feFuncR type="linear" slope="0"/>
	<feFuncG type="linear" slope="0"/>
	<feFuncB type="linear" slope="0"/>
</feComponentTransfer>
<feGaussianBlur stdDeviation="2 2" />
<feOffset result="1" dx="-3.53558" dy="-3.53549"/>
<feComponentTransfer in="SourceGraphic">
	<feFuncR type="linear" slope="0"/>
	<feFuncG type="linear" slope="0"/>
	<feFuncB type="linear" slope="0"/>
</feComponentTransfer>
<feGaussianBlur stdDeviation="2 2" />
<feOffset result="2" dx="3.53558" dy="3.53549"/>
<feComposite  in="1" in2="2" operator="arithmetic" k2="1" k3="-1"/>
<feComponentTransfer result="3">
	<feFuncR type="linear" Ue="0" intercept="0.647059"/>
	<feFuncG type="linear" Ue="0" intercept="0.647059"/>
	<feFuncB type="linear" Ue="0" intercept="0.647059"/>
	<feFuncA type="linear" xh="0" slope="1"/>
</feComponentTransfer>
<feComposite  in="2" in2="1" operator="arithmetic" k2="1" k3="-1"/>
<feComponentTransfer result="4">
	<feFuncR type="linear" Ue="0" intercept="0"/>
	<feFuncG type="linear" Ue="0" intercept="0"/>
	<feFuncB type="linear" Ue="0" intercept="0"/>
	<feFuncA type="linear" xh="0" slope="1"/>
</feComponentTransfer>
<feComposite result="5"  in="3" in2="4" operator="arithmetic" k2="1" k3="1"/>
<feComposite result="6"  in="5" in2="SourceGraphic" operator="atop"/>
</filter>
<g style="filter:url(#filter7);">
<g id="PathID_1" transform="matrix(0.014244, 0.830348, -0.830348, 0.014244, 101.7, 171.45)" opacity="1">
<radialGradient
id="RadialGradID_1" gradientUnits="userSpaceOnUse" gradientTransform="matrix(-3.84115e-009, 0.0878754, -0.0878754, -3.84115e-009, -3.35, -8.05)" spreadMethod ="pad" cx="0" cy="0" r="819.2" fx="0" fy="0" >
<stop  offset="0.243137"  style="stop-color:#FFC508;stop-opacity:1" />
<stop  offset="1"  style="stop-color:#595959;stop-opacity:1" />
</radialGradient>
<path style="fill:url(#RadialGradID_1) " d="M10.1 1.5L48.8 -11.35L48.8 55.55L10.1 44L10.1 1.5M-48.75 -55.5L-9.4 -55.5L-9.4 -17.55L-48.75 -4.3L-48.75 -55.5" />
</g>
<g id="PathID_2" transform="matrix(0.014244, 0.830348, -0.830348, 0.014244, 101.7, 171.45)" opacity="1">
</g>
</g>
<filter id="filter14" x="-0.549524" y="-0.549524" width="2.31148" height="2.32557" >
<feComponentTransfer in="SourceGraphic">
	<feFuncR type="linear" slope="0"/>
	<feFuncG type="linear" slope="0"/>
	<feFuncB type="linear" slope="0"/>
</feComponentTransfer>
<feGaussianBlur stdDeviation="2 2" />
<feOffset result="8" dx="-3.53558" dy="-3.53549"/>
<feComponentTransfer in="SourceGraphic">
	<feFuncR type="linear" slope="0"/>
	<feFuncG type="linear" slope="0"/>
	<feFuncB type="linear" slope="0"/>
</feComponentTransfer>
<feGaussianBlur stdDeviation="2 2" />
<feOffset result="9" dx="3.53558" dy="3.53549"/>
<feComposite  in="8" in2="9" operator="arithmetic" k2="1" k3="-1"/>
<feComponentTransfer result="10">
	<feFuncR type="linear" Ue="0" intercept="0.176471"/>
	<feFuncG type="linear" Ue="0" intercept="0.337255"/>
	<feFuncB type="linear" Ue="0" intercept="0.596078"/>
	<feFuncA type="linear" xh="0" slope="1"/>
</feComponentTransfer>
<feComposite  in="9" in2="8" operator="arithmetic" k2="1" k3="-1"/>
<feComponentTransfer result="11">
	<feFuncR type="linear" Ue="0" intercept="0"/>
	<feFuncG type="linear" Ue="0" intercept="0"/>
	<feFuncB type="linear" Ue="0" intercept="0"/>
	<feFuncA type="linear" xh="0" slope="1"/>
</feComponentTransfer>
<feComposite result="12"  in="10" in2="11" operator="arithmetic" k2="1" k3="1"/>
<feComposite result="13"  in="12" in2="SourceGraphic" operator="atop"/>
</filter>
<g style="filter:url(#filter14);">
<g id="PathID_3" transform="matrix(0.176981, 0.811392, -0.811392, 0.176981, 104.5, 175.6)" opacity="1">
<radialGradient
id="RadialGradID_2" gradientUnits="userSpaceOnUse" gradientTransform="matrix(-2.63725e-009, 0.0603333, -0.0603333, -2.63725e-009, 0, 0)" spreadMethod ="pad" cx="0" cy="0" r="819.2" fx="0" fy="0" >
<stop  offset="0.227451"  style="stop-color:#0B5C9E;stop-opacity:1" />
<stop  offset="1"  style="stop-color:#001D4C;stop-opacity:1" />
</radialGradient>
<path style="fill:url(#RadialGradID_2) " d="M49.45 -56.55L49.45 -18.1L-8.35 0.2L-8.35 44.85L-49.4 56.6L-49.4 1.45L9.2 -17.2L9.2 -56.55L49.45 -56.55" />
</g>
<g id="PathID_4" transform="matrix(0.176981, 0.811392, -0.811392, 0.176981, 104.5, 175.6)" opacity="1">
</g>
</g>
<g id="PathID_5" transform="matrix(1.2335, 0, 0, 0.965834, 154.3, 165.45)" opacity="1">
<linearGradient
id="LinearGradID_3" gradientUnits="userSpaceOnUse" gradientTransform="matrix(-0.014737, 0.0930459, -0.0224416, -0.00355441, 80.95, -18.1)" spreadMethod ="pad" x1="-819.2" y1="0" x2="819.2" y2="0" >
<stop  offset="0" style="stop-color:#FFD400;stop-opacity:0.588235" />
<stop  offset="0.054902" style="stop-color:#EDEA5E;stop-opacity:1" />
<stop  offset="0.694118" style="stop-color:#A58E33;stop-opacity:0.968627" />
<stop  offset="1" style="stop-color:#2D3439;stop-opacity:1" />
<stop  offset="1" style="stop-color:#6C6027;stop-opacity:1" />
</linearGradient>
<path style="fill:url(#LinearGradID_3) " d="M3.9 -36.65L31.3 -36.65L31.3 -30.45L11.3 -30.45L11.3 -21.95L21.15 -21.95Q25.25 -21.95 27.95 -20.95Q30.65 -19.95 32.55 -17.25Q34.5 -14.55 34.5 -10.95Q34.5 -7.2 32.55 -4.55Q30.65 -1.9 28.15 -0.95Q25.7 0 21.15 0L3.9 0L3.9 -36.65M11.3 -6.2L18.45 -6.2Q21.9 -6.2 23.3 -6.5Q24.7 -6.85 25.75 -8Q26.8 -9.2 26.8 -10.95Q26.8 -13.45 24.95 -14.6Q23.15 -15.75 18.8 -15.75L11.3 -15.75L11.3 -6.2" />
</g>
<g id="PathID_6" transform="matrix(1.2335, 0, 0, 0.965834, 154.3, 165.45)" opacity="1">
</g>
<g id="PathID_7" transform="matrix(1.2335, 0, 0, 0.965834, 194.4, 165.45)" opacity="1">
<linearGradient
id="LinearGradID_4" gradientUnits="userSpaceOnUse" gradientTransform="matrix(-0.014737, 0.0930459, -0.0224416, -0.00355441, 48.4, -18.1)" spreadMethod ="pad" x1="-819.2" y1="0" x2="819.2" y2="0" >
<stop  offset="0" style="stop-color:#FFD400;stop-opacity:0.588235" />
<stop  offset="0.054902" style="stop-color:#EDEA5E;stop-opacity:1" />
<stop  offset="0.694118" style="stop-color:#A58E33;stop-opacity:0.968627" />
<stop  offset="1" style="stop-color:#2D3439;stop-opacity:1" />
<stop  offset="1" style="stop-color:#6C6027;stop-opacity:1" />
</linearGradient>
<path style="fill:url(#LinearGradID_4) " d="M3.5 -26.55L10.25 -26.55L10.25 -9.8L21.1 -26.55L28 -26.55L28 0L21.25 0L21.25 -16.9L10.25 0L3.5 0L3.5 -26.55" />
</g>
<g id="PathID_8" transform="matrix(1.2335, 0, 0, 0.965834, 194.4, 165.45)" opacity="1">
</g>
<g id="PathID_9" transform="matrix(1.2335, 0, 0, 0.965834, 227.95, 165.45)" opacity="1">
<linearGradient
id="LinearGradID_5" gradientUnits="userSpaceOnUse" gradientTransform="matrix(-0.014737, 0.0930459, -0.0224416, -0.00355441, 21.2, -18.1)" spreadMethod ="pad" x1="-819.2" y1="0" x2="819.2" y2="0" >
<stop  offset="0" style="stop-color:#FFD400;stop-opacity:0.588235" />
<stop  offset="0.054902" style="stop-color:#EDEA5E;stop-opacity:1" />
<stop  offset="0.694118" style="stop-color:#A58E33;stop-opacity:0.968627" />
<stop  offset="1" style="stop-color:#2D3439;stop-opacity:1" />
<stop  offset="1" style="stop-color:#6C6027;stop-opacity:1" />
</linearGradient>
<path style="fill:url(#LinearGradID_5) " d="M10.8 -10.9L10.8 -15.5Q12.6 -15.5 13.4 -15.7Q14.25 -15.95 15 -16.85Q15.75 -17.75 15.75 -18.95Q15.75 -20.15 14.8 -21.2Q13.9 -22.3 12.1 -22.3Q10.7 -22.3 9.6 -21.7Q8.5 -21.1 7.65 -18.85L1.7 -20.15Q2.55 -23.65 5.5 -25.4Q8.45 -27.15 12.2 -27.15Q17 -27.15 19.65 -24.95Q22.3 -22.75 22.3 -19.4Q22.3 -17.35 21.15 -15.95Q20 -14.6 17.55 -13.45Q20.5 -12.65 21.95 -11Q23.45 -9.4 23.45 -6.95Q23.45 -3.85 20.55 -1.6Q17.65 0.6 12.2 0.6Q2.7 0.6 0.6 -6.8L7.05 -8Q8.55 -4.1 12.1 -4.1Q14.05 -4.1 15.25 -5.1Q16.45 -6.15 16.45 -7.55Q16.45 -9.1 15.2 -10Q13.95 -10.9 11.95 -10.9L10.8 -10.9" />
</g>
<g id="PathID_10" transform="matrix(1.2335, 0, 0, 0.965834, 227.95, 165.45)" opacity="1">
</g>
<g id="PathID_11" transform="matrix(1.2335, 0, 0, 0.965834, 254, 165.45)" opacity="1">
<linearGradient
id="LinearGradID_6" gradientUnits="userSpaceOnUse" gradientTransform="matrix(-0.014737, 0.0930459, -0.0224416, -0.00355441, 0.1, -18.1)" spreadMethod ="pad" x1="-819.2" y1="0" x2="819.2" y2="0" >
<stop  offset="0" style="stop-color:#FFD400;stop-opacity:0.588235" />
<stop  offset="0.054902" style="stop-color:#EDEA5E;stop-opacity:1" />
<stop  offset="0.694118" style="stop-color:#A58E33;stop-opacity:0.968627" />
<stop  offset="1" style="stop-color:#2D3439;stop-opacity:1" />
<stop  offset="1" style="stop-color:#6C6027;stop-opacity:1" />
</linearGradient>
<path style="fill:url(#LinearGradID_6) " d="M3.4 -26.55L10.45 -26.55L10.45 -16.85L20.5 -16.85L20.5 -26.55L27.55 -26.55L27.55 0L20.5 0L20.5 -11.15L10.45 -11.15L10.45 0L3.4 0L3.4 -26.55" />
</g>
<g id="PathID_12" transform="matrix(1.2335, 0, 0, 0.965834, 254, 165.45)" opacity="1">
</g>
<g id="PathID_13" transform="matrix(1.2335, 0, 0, 0.965834, 286.9, 165.45)" opacity="1">
<linearGradient
id="LinearGradID_7" gradientUnits="userSpaceOnUse" gradientTransform="matrix(-0.014737, 0.0930459, -0.0224416, -0.00355441, -26.5, -18.1)" spreadMethod ="pad" x1="-819.2" y1="0" x2="819.2" y2="0" >
<stop  offset="0" style="stop-color:#FFD400;stop-opacity:0.588235" />
<stop  offset="0.054902" style="stop-color:#EDEA5E;stop-opacity:1" />
<stop  offset="0.694118" style="stop-color:#A58E33;stop-opacity:0.968627" />
<stop  offset="1" style="stop-color:#2D3439;stop-opacity:1" />
<stop  offset="1" style="stop-color:#6C6027;stop-opacity:1" />
</linearGradient>
<path style="fill:url(#LinearGradID_7) " d="M19.05 -8.45L26.05 -7.25Q24.7 -3.4 21.75 -1.4Q18.85 0.6 14.5 0.6Q7.55 0.6 4.25 -3.9Q1.65 -7.55 1.65 -13.05Q1.65 -19.65 5.1 -23.4Q8.55 -27.15 13.8 -27.15Q19.75 -27.15 23.15 -23.2Q26.6 -19.3 26.45 -11.25L8.85 -11.25Q8.9 -8.1 10.5 -6.35Q12.15 -4.65 14.55 -4.65Q16.2 -4.65 17.3 -5.55Q18.45 -6.45 19.05 -8.45M19.45 -15.55Q19.35 -18.55 17.85 -20.15Q16.35 -21.75 14.2 -21.75Q11.9 -21.75 10.4 -20.05Q8.95 -18.4 8.95 -15.55L19.45 -15.55" />
</g>
<g id="PathID_14" transform="matrix(1.2335, 0, 0, 0.965834, 286.9, 165.45)" opacity="1">
</g>
<g id="PathID_15" transform="matrix(1.2335, 0, 0, 0.965834, 315.85, 165.45)" opacity="1">
<linearGradient
id="LinearGradID_8" gradientUnits="userSpaceOnUse" gradientTransform="matrix(-0.014737, 0.0930459, -0.0224416, -0.00355441, -50, -18.1)" spreadMethod ="pad" x1="-819.2" y1="0" x2="819.2" y2="0" >
<stop  offset="0" style="stop-color:#FFD400;stop-opacity:0.588235" />
<stop  offset="0.054902" style="stop-color:#EDEA5E;stop-opacity:1" />
<stop  offset="0.694118" style="stop-color:#A58E33;stop-opacity:0.968627" />
<stop  offset="1" style="stop-color:#2D3439;stop-opacity:1" />
<stop  offset="1" style="stop-color:#6C6027;stop-opacity:1" />
</linearGradient>
<path style="fill:url(#LinearGradID_8) " d="M26.85 -18.7L19.9 -17.45Q19.55 -19.5 18.3 -20.55Q17.05 -21.6 15.1 -21.6Q12.45 -21.6 10.9 -19.75Q9.35 -17.95 9.35 -13.7Q9.35 -9 10.9 -7.05Q12.5 -5.15 15.2 -5.15Q17.2 -5.15 18.45 -6.25Q19.75 -7.4 20.3 -10.2L27.2 -9Q26.1 -4.25 23.05 -1.8Q20 0.6 14.9 0.6Q9.05 0.6 5.6 -3.05Q2.15 -6.75 2.15 -13.25Q2.15 -19.8 5.6 -23.45Q9.1 -27.15 15 -27.15Q19.85 -27.15 22.7 -25.05Q25.6 -22.95 26.85 -18.7" />
</g>
<g id="PathID_16" transform="matrix(1.2335, 0, 0, 0.965834, 315.85, 165.45)" opacity="1">
</g>
<g id="PathID_17" transform="matrix(1.2335, 0, 0, 0.965834, 194.25, 213.55)" opacity="1">
<linearGradient
id="LinearGradID_9" gradientUnits="userSpaceOnUse" gradientTransform="matrix(-0.0238726, 0.150725, -0.0225702, -0.00357477, 128.85, -18.2)" spreadMethod ="pad" x1="-819.2" y1="0" x2="819.2" y2="0" >
<stop  offset="0" style="stop-color:#FFD400;stop-opacity:0.588235" />
<stop  offset="0.054902" style="stop-color:#EDEA5E;stop-opacity:1" />
<stop  offset="0.694118" style="stop-color:#A58E33;stop-opacity:0.968627" />
<stop  offset="1" style="stop-color:#2D3439;stop-opacity:1" />
<stop  offset="1" style="stop-color:#6C6027;stop-opacity:1" />
</linearGradient>
<path style="fill:url(#LinearGradID_9) " d="M3.85 -36.65L11.25 -36.65L11.25 -21.05Q13.7 -21.3 14.55 -22.3Q15.45 -23.35 17.3 -28Q19.6 -33.95 21.9 -35.4Q24.2 -36.85 29.35 -36.85L30.45 -36.9L30.45 -31.4L29.35 -31.4Q27.1 -31.4 26.05 -30.85Q25 -30.3 24.35 -29.15Q23.7 -28 22.4 -24.4Q21.75 -22.5 20.95 -21.2Q20.15 -19.95 18.15 -18.85Q20.65 -18.15 22.25 -16Q23.85 -13.9 25.8 -10.05L30.8 0L22.1 0L17.7 -9.45L17.3 -10.25L16.35 -11.95Q14.95 -14.65 14 -15.3Q13.1 -16 11.25 -16.05L11.25 0L3.85 0L3.85 -36.65" />
</g>
<g id="PathID_18" transform="matrix(1.2335, 0, 0, 0.965834, 194.25, 213.55)" opacity="1">
</g>
<g id="PathID_19" transform="matrix(1.2335, 0, 0, 0.965834, 227.4, 213.55)" opacity="1">
<linearGradient
id="LinearGradID_10" gradientUnits="userSpaceOnUse" gradientTransform="matrix(-0.0238726, 0.150725, -0.0225702, -0.00357477, 102, -18.2)" spreadMethod ="pad" x1="-819.2" y1="0" x2="819.2" y2="0" >
<stop  offset="0" style="stop-color:#FFD400;stop-opacity:0.588235" />
<stop  offset="0.054902" style="stop-color:#EDEA5E;stop-opacity:1" />
<stop  offset="0.694118" style="stop-color:#A58E33;stop-opacity:0.968627" />
<stop  offset="1" style="stop-color:#2D3439;stop-opacity:1" />
<stop  offset="1" style="stop-color:#6C6027;stop-opacity:1" />
</linearGradient>
<path style="fill:url(#LinearGradID_10) " d="M2 -13.65Q2 -17.15 3.7 -20.4Q5.45 -23.7 8.6 -25.4Q11.75 -27.15 15.7 -27.15Q21.7 -27.15 25.55 -23.2Q29.45 -19.3 29.45 -13.35Q29.45 -7.3 25.55 -3.35Q21.65 0.6 15.75 0.6Q12.05 0.6 8.75 -1.05Q5.45 -2.7 3.7 -5.85Q2 -9.05 2 -13.65M9.2 -13.25Q9.2 -9.3 11.05 -7.2Q12.95 -5.15 15.7 -5.15Q18.45 -5.15 20.3 -7.2Q22.2 -9.3 22.2 -13.3Q22.2 -17.2 20.3 -19.3Q18.45 -21.4 15.7 -21.4Q12.95 -21.4 11.05 -19.3Q9.2 -17.2 9.2 -13.25" />
</g>
<g id="PathID_20" transform="matrix(1.2335, 0, 0, 0.965834, 227.4, 213.55)" opacity="1">
</g>
<g id="PathID_21" transform="matrix(1.2335, 0, 0, 0.965834, 260.7, 213.55)" opacity="1">
<linearGradient
id="LinearGradID_11" gradientUnits="userSpaceOnUse" gradientTransform="matrix(-0.0238726, 0.150725, -0.0225702, -0.00357477, 75, -18.2)" spreadMethod ="pad" x1="-819.2" y1="0" x2="819.2" y2="0" >
<stop  offset="0" style="stop-color:#FFD400;stop-opacity:0.588235" />
<stop  offset="0.054902" style="stop-color:#EDEA5E;stop-opacity:1" />
<stop  offset="0.694118" style="stop-color:#A58E33;stop-opacity:0.968627" />
<stop  offset="1" style="stop-color:#2D3439;stop-opacity:1" />
<stop  offset="1" style="stop-color:#6C6027;stop-opacity:1" />
</linearGradient>
<path style="fill:url(#LinearGradID_11) " d="M3.4 -26.55L10.45 -26.55L10.45 -16.85L20.5 -16.85L20.5 -26.55L27.55 -26.55L27.55 0L20.5 0L20.5 -11.15L10.45 -11.15L10.45 0L3.4 0L3.4 -26.55" />
</g>
<g id="PathID_22" transform="matrix(1.2335, 0, 0, 0.965834, 260.7, 213.55)" opacity="1">
</g>
<g id="PathID_23" transform="matrix(1.2335, 0, 0, 0.965834, 293.6, 213.55)" opacity="1">
<linearGradient
id="LinearGradID_12" gradientUnits="userSpaceOnUse" gradientTransform="matrix(-0.0238726, 0.150725, -0.0225702, -0.00357477, 48.3, -18.2)" spreadMethod ="pad" x1="-819.2" y1="0" x2="819.2" y2="0" >
<stop  offset="0" style="stop-color:#FFD400;stop-opacity:0.588235" />
<stop  offset="0.054902" style="stop-color:#EDEA5E;stop-opacity:1" />
<stop  offset="0.694118" style="stop-color:#A58E33;stop-opacity:0.968627" />
<stop  offset="1" style="stop-color:#2D3439;stop-opacity:1" />
<stop  offset="1" style="stop-color:#6C6027;stop-opacity:1" />
</linearGradient>
<path style="fill:url(#LinearGradID_12) " d="M26.85 -18.7L19.9 -17.45Q19.55 -19.5 18.3 -20.55Q17.05 -21.6 15.1 -21.6Q12.45 -21.6 10.9 -19.75Q9.35 -17.95 9.35 -13.7Q9.35 -9 10.9 -7.05Q12.5 -5.15 15.2 -5.15Q17.2 -5.15 18.45 -6.25Q19.75 -7.4 20.3 -10.2L27.2 -9Q26.1 -4.25 23.05 -1.8Q20 0.6 14.9 0.6Q9.05 0.6 5.6 -3.05Q2.15 -6.75 2.15 -13.25Q2.15 -19.8 5.6 -23.45Q9.1 -27.15 15 -27.15Q19.85 -27.15 22.7 -25.05Q25.6 -22.95 26.85 -18.7" />
</g>
<g id="PathID_24" transform="matrix(1.2335, 0, 0, 0.965834, 293.6, 213.55)" opacity="1">
</g>
<g id="PathID_25" transform="matrix(1.2335, 0, 0, 0.965834, 324.25, 213.55)" opacity="1">
<linearGradient
id="LinearGradID_13" gradientUnits="userSpaceOnUse" gradientTransform="matrix(-0.0238726, 0.150725, -0.0225702, -0.00357477, 23.45, -18.2)" spreadMethod ="pad" x1="-819.2" y1="0" x2="819.2" y2="0" >
<stop  offset="0" style="stop-color:#FFD400;stop-opacity:0.588235" />
<stop  offset="0.054902" style="stop-color:#EDEA5E;stop-opacity:1" />
<stop  offset="0.694118" style="stop-color:#A58E33;stop-opacity:0.968627" />
<stop  offset="1" style="stop-color:#2D3439;stop-opacity:1" />
<stop  offset="1" style="stop-color:#6C6027;stop-opacity:1" />
</linearGradient>
<path style="fill:url(#LinearGradID_13) " d="M8.95 -18.35L2.6 -19.5Q3.65 -23.4 6.25 -25.25Q8.9 -27.15 14.05 -27.15Q18.75 -27.15 21.05 -26Q23.35 -24.9 24.3 -23.2Q25.25 -21.5 25.25 -16.9L25.15 -8.7Q25.15 -5.2 25.45 -3.55Q25.8 -1.9 26.75 0L19.8 0Q19.5 -0.7 19.1 -2.05L18.85 -2.9Q17.05 -1.15 15 -0.25Q12.95 0.6 10.65 0.6Q6.55 0.6 4.2 -1.6Q1.85 -3.8 1.85 -7.2Q1.85 -9.45 2.9 -11.2Q3.95 -12.95 5.9 -13.85Q7.85 -14.8 11.45 -15.5Q16.4 -16.45 18.3 -17.25L18.3 -17.95Q18.3 -20 17.3 -20.85Q16.3 -21.75 13.55 -21.75Q11.65 -21.75 10.6 -20.95Q9.55 -20.2 8.95 -18.35M18.3 -12.65Q16.95 -12.2 14.05 -11.55Q11.15 -10.95 10.25 -10.35Q8.9 -9.4 8.9 -7.9Q8.9 -6.45 9.95 -5.4Q11.05 -4.35 12.75 -4.35Q14.65 -4.35 16.35 -5.55Q17.6 -6.5 18 -7.85Q18.3 -8.75 18.3 -11.25L18.3 -12.65" />
</g>
<g id="PathID_26" transform="matrix(1.2335, 0, 0, 0.965834, 324.25, 213.55)" opacity="1">
</g>
<g id="PathID_27" transform="matrix(1.2335, 0, 0, 0.965834, 354.1, 213.55)" opacity="1">
<linearGradient
id="LinearGradID_14" gradientUnits="userSpaceOnUse" gradientTransform="matrix(-0.0238726, 0.150725, -0.0225702, -0.00357477, -0.7, -18.2)" spreadMethod ="pad" x1="-819.2" y1="0" x2="819.2" y2="0" >
<stop  offset="0" style="stop-color:#FFD400;stop-opacity:0.588235" />
<stop  offset="0.054902" style="stop-color:#EDEA5E;stop-opacity:1" />
<stop  offset="0.694118" style="stop-color:#A58E33;stop-opacity:0.968627" />
<stop  offset="1" style="stop-color:#2D3439;stop-opacity:1" />
<stop  offset="1" style="stop-color:#6C6027;stop-opacity:1" />
</linearGradient>
<path style="fill:url(#LinearGradID_14) " d="M5.6 -26.55L29.1 -26.55L29.1 0L22.05 0L22.05 -20.85L12.55 -20.85L12.55 -8.9Q12.55 -4.35 11.5 -2.5Q10.45 -0.7 9.15 -0.1Q7.9 0.45 5.05 0.45Q3.4 0.45 0.65 0L0.65 -5.15L1.8 -5.1L3.5 -5.05Q4.95 -5.05 5.25 -5.95Q5.6 -6.9 5.6 -11.2L5.6 -26.55" />
</g>
<g id="PathID_28" transform="matrix(1.2335, 0, 0, 0.965834, 354.1, 213.55)" opacity="1">
</g>
<g id="PathID_29" transform="matrix(1.2335, 0, 0, 0.965834, 388.95, 213.55)" opacity="1">
<linearGradient
id="LinearGradID_15" gradientUnits="userSpaceOnUse" gradientTransform="matrix(-0.0238726, 0.150725, -0.0225702, -0.00357477, -28.95, -18.2)" spreadMethod ="pad" x1="-819.2" y1="0" x2="819.2" y2="0" >
<stop  offset="0" style="stop-color:#FFD400;stop-opacity:0.588235" />
<stop  offset="0.054902" style="stop-color:#EDEA5E;stop-opacity:1" />
<stop  offset="0.694118" style="stop-color:#A58E33;stop-opacity:0.968627" />
<stop  offset="1" style="stop-color:#2D3439;stop-opacity:1" />
<stop  offset="1" style="stop-color:#6C6027;stop-opacity:1" />
</linearGradient>
<path style="fill:url(#LinearGradID_15) " d="M0.55 -26.55L24.6 -26.55L24.6 -20.85L16.1 -20.85L16.1 0L9.05 0L9.05 -20.85L0.55 -20.85L0.55 -26.55" />
</g>
<g id="PathID_30" transform="matrix(1.2335, 0, 0, 0.965834, 388.95, 213.55)" opacity="1">
</g>
<g id="PathID_31" transform="matrix(1.2335, 0, 0, 0.965834, 414.6, 213.55)" opacity="1">
<linearGradient
id="LinearGradID_16" gradientUnits="userSpaceOnUse" gradientTransform="matrix(-0.0238726, 0.150725, -0.0225702, -0.00357477, -49.75, -18.2)" spreadMethod ="pad" x1="-819.2" y1="0" x2="819.2" y2="0" >
<stop  offset="0" style="stop-color:#FFD400;stop-opacity:0.588235" />
<stop  offset="0.054902" style="stop-color:#EDEA5E;stop-opacity:1" />
<stop  offset="0.694118" style="stop-color:#A58E33;stop-opacity:0.968627" />
<stop  offset="1" style="stop-color:#2D3439;stop-opacity:1" />
<stop  offset="1" style="stop-color:#6C6027;stop-opacity:1" />
</linearGradient>
<path style="fill:url(#LinearGradID_16) " d="M3.5 -26.55L10.25 -26.55L10.25 -9.8L21.1 -26.55L28 -26.55L28 0L21.25 0L21.25 -16.9L10.25 0L3.5 0L3.5 -26.55" />
</g>
<g id="PathID_32" transform="matrix(1.2335, 0, 0, 0.965834, 414.6, 213.55)" opacity="1">
</g>
<g id="PathID_33" transform="matrix(1.2335, 0, 0, 0.965834, 448.15, 213.55)" opacity="1">
<linearGradient
id="LinearGradID_17" gradientUnits="userSpaceOnUse" gradientTransform="matrix(-0.0238726, 0.150725, -0.0225702, -0.00357477, -76.95, -18.2)" spreadMethod ="pad" x1="-819.2" y1="0" x2="819.2" y2="0" >
<stop  offset="0" style="stop-color:#FFD400;stop-opacity:0.588235" />
<stop  offset="0.054902" style="stop-color:#EDEA5E;stop-opacity:1" />
<stop  offset="0.694118" style="stop-color:#A58E33;stop-opacity:0.968627" />
<stop  offset="1" style="stop-color:#2D3439;stop-opacity:1" />
<stop  offset="1" style="stop-color:#6C6027;stop-opacity:1" />
</linearGradient>
<path style="fill:url(#LinearGradID_17) " d="M3.4 -26.55L10.45 -26.55L10.45 -16.85L20.5 -16.85L20.5 -26.55L27.55 -26.55L27.55 0L20.5 0L20.5 -11.15L10.45 -11.15L10.45 0L3.4 0L3.4 -26.55" />
</g>
<g id="PathID_34" transform="matrix(1.2335, 0, 0, 0.965834, 448.15, 213.55)" opacity="1">
</g>
<g id="PathID_35" transform="matrix(1.2335, 0, 0, 0.965834, 481.05, 213.55)" opacity="1">
<linearGradient
id="LinearGradID_18" gradientUnits="userSpaceOnUse" gradientTransform="matrix(-0.0238726, 0.150725, -0.0225702, -0.00357477, -103.65, -18.2)" spreadMethod ="pad" x1="-819.2" y1="0" x2="819.2" y2="0" >
<stop  offset="0" style="stop-color:#FFD400;stop-opacity:0.588235" />
<stop  offset="0.054902" style="stop-color:#EDEA5E;stop-opacity:1" />
<stop  offset="0.694118" style="stop-color:#A58E33;stop-opacity:0.968627" />
<stop  offset="1" style="stop-color:#2D3439;stop-opacity:1" />
<stop  offset="1" style="stop-color:#6C6027;stop-opacity:1" />
</linearGradient>
<path style="fill:url(#LinearGradID_18) " d="M3.4 -26.55L21.35 -26.55L21.35 -20.85L10.45 -20.85L10.45 0L3.4 0L3.4 -26.55" />
</g>
<g id="PathID_36" transform="matrix(1.2335, 0, 0, 0.965834, 481.05, 213.55)" opacity="1">
</g>
</svg>
